<svg width="24" height="24" viewBox="0 0 24 24" fill="none" xmlns="http://www.w3.org/2000/svg">
<path d="M2 5H22V19H2V5Z" fill="#3D9635"/>
<path d="M5.72506 8.3194C5.69568 8.7744 5.65818 9.57916 6.00568 9.66087C6.42506 9.70359 6.19318 8.86787 6.34506 8.71621C6.37381 8.64192 6.42693 8.64192 6.43131 8.7354V9.4473C6.42532 9.52286 6.44587 9.59815 6.48949 9.66043C6.53312 9.7227 6.59712 9.76812 6.67068 9.78902C6.78068 9.78159 6.85381 9.7853 6.89693 9.90602C6.91506 10.3146 6.93131 10.7225 6.94818 11.1311C6.94818 11.1311 7.20506 11.2165 7.21693 10.4427C7.18937 10.1365 7.17956 9.82894 7.18756 9.52159C7.18756 9.43616 7.28756 9.42811 7.35881 9.47516C7.46881 9.56059 7.51756 9.66521 7.68756 9.62249C7.94756 9.54078 8.10193 9.40521 8.10631 9.17925C8.09988 8.96332 8.06048 8.7496 7.98943 8.54535C8.00131 8.50635 7.93818 8.40978 7.95131 8.37078C7.99756 8.45249 8.06756 8.44445 8.08318 8.37078C8.05742 8.22037 7.97856 8.08392 7.86068 7.98573C7.76818 7.89597 7.63193 7.91578 7.58256 8.10645C7.57776 8.35042 7.65298 8.58936 7.79693 8.7874C7.84084 8.89597 7.8586 9.01318 7.84881 9.12973C7.81431 9.15094 7.77278 9.15789 7.73316 9.14909C7.69354 9.1403 7.65899 9.11645 7.63693 9.08268C7.63693 9.08268 7.42818 8.90811 7.42818 8.87283C7.47827 8.69243 7.47217 8.50125 7.41068 8.32435C7.38773 8.21708 7.34098 8.11622 7.27381 8.02906C7.22256 7.96283 7.15256 7.96283 7.11943 8.02906C7.04563 8.26546 7.05133 8.5192 7.13568 8.75211C7.18193 8.90811 7.25631 9.0053 7.22256 9.0053C7.19318 9.09445 7.13506 9.07092 7.09256 8.97002C7.04195 8.75202 7.01782 8.52882 7.02068 8.30516C7.00131 8.12997 6.98068 7.75668 6.87756 7.65949C6.81506 7.56602 6.72068 7.61306 6.69006 7.70221C6.68254 7.87084 6.68609 8.03979 6.70068 8.20797C6.76174 8.47763 6.80454 8.75104 6.82881 9.02635C6.83756 9.4114 6.62943 9.19349 6.64131 8.99911C6.68513 8.75473 6.68174 8.50433 6.63131 8.26121C6.59693 8.15968 6.55693 8.1374 6.47318 8.15597C6.40693 8.14854 6.23818 8.35468 6.19131 8.6964C6.16595 8.8069 6.14676 8.91871 6.13381 9.0313C6.10943 9.20587 6.00568 9.3303 5.93318 9.00406C5.87068 8.76635 5.83068 8.18321 5.72506 8.3194Z" fill="white"/>
<path d="M6.86693 10.1856C6.49568 10.3917 6.1363 10.5787 5.7713 10.7731C5.83289 10.5784 5.94562 10.4034 6.09794 10.266C6.25026 10.1286 6.4367 10.0338 6.63818 9.99121C6.86318 9.99926 6.80568 10.0884 6.86693 10.1856Z" fill="white"/>
<path d="M8.26252 7.61156C8.23859 7.61655 8.21531 7.62424 8.19314 7.63446C8.13634 7.65385 8.08932 7.69427 8.06194 7.74724C8.03455 7.80021 8.02894 7.86163 8.04627 7.91861C8.15189 8.63423 8.21877 9.17837 8.32439 9.89027C8.34314 9.9757 8.27814 10.0847 8.19939 10.076C8.06064 9.97137 8.02627 9.75718 7.79064 9.76646C7.69075 9.78593 7.59946 9.83574 7.52945 9.90896C7.45945 9.98218 7.41421 10.0752 7.40002 10.175C7.36809 10.3288 7.36809 10.4874 7.40002 10.6412C7.44205 10.7016 7.50412 10.7456 7.57546 10.7655C7.64681 10.7854 7.72293 10.78 7.79064 10.7501C7.89377 10.7037 7.97814 10.5873 8.01689 10.6139C8.03939 10.661 8.01314 11.0343 7.52877 11.3184C7.22939 11.4658 6.99314 11.5041 6.86439 11.2324C6.78689 11.0615 6.87064 10.4158 6.67689 10.5638C6.10002 12.2204 8.02627 12.4538 8.23939 10.6338C8.25377 10.583 8.29689 10.5328 8.32689 10.544C8.34189 10.552 8.35127 10.5712 8.35502 10.6102C8.31002 12.255 6.86564 12.364 6.62064 11.8483C6.56095 11.6686 6.5316 11.4804 6.53377 11.2912C6.53346 11.2243 6.51156 11.1592 6.47127 11.1055C6.41314 11.059 6.33439 11.1872 6.31689 11.4088C6.29915 11.5403 6.29329 11.6731 6.29939 11.8056C6.37627 13.1124 8.23689 12.5522 8.54127 11.475C8.5999 11.1362 8.61564 10.7914 8.58814 10.4487H8.59439L8.59877 10.4449C8.78627 10.6666 9.04377 10.4722 9.09877 10.3979C9.10497 10.3869 9.1137 10.3775 9.12425 10.3705C9.1348 10.3635 9.14687 10.3591 9.15948 10.3576C9.1721 10.3561 9.18489 10.3575 9.19682 10.3618C9.20875 10.3662 9.21949 10.3732 9.22814 10.3824C9.26443 10.4112 9.30733 10.4307 9.35303 10.4392C9.39874 10.4477 9.44586 10.4449 9.49022 10.4311C9.53458 10.4173 9.57481 10.3928 9.60737 10.3599C9.63993 10.327 9.66381 10.2867 9.67689 10.2425C9.70969 10.0375 9.73055 9.83083 9.73939 9.62346C9.66618 9.63955 9.59745 9.67147 9.53814 9.71694C9.53052 9.72572 9.52554 9.73645 9.52377 9.74789C9.51627 9.80237 9.50877 9.86489 9.50002 9.92308C9.49885 9.92832 9.49739 9.93349 9.49564 9.93856C9.49151 9.94557 9.48513 9.95102 9.47752 9.95404C9.46852 9.9594 9.45831 9.96243 9.44781 9.96285C9.43732 9.96327 9.42689 9.96107 9.41748 9.95644C9.40808 9.95181 9.4 9.94491 9.394 9.93638C9.388 9.92784 9.38427 9.91795 9.38314 9.90761C9.33939 9.68599 9.15627 9.6507 9.04439 10.0011C8.96752 10.071 8.83314 10.0822 8.81814 9.98499C8.83752 9.74789 8.75127 9.71694 8.58064 9.82589C8.52689 9.35913 8.47064 8.91589 8.41564 8.44913C8.48814 8.44913 8.55127 8.50732 8.61752 8.41818C8.55715 8.14148 8.45496 7.87538 8.31439 7.62889C8.31015 7.62345 8.30555 7.61828 8.30064 7.61342C8.30064 7.61342 8.30064 7.61342 8.29564 7.60908H8.29064C8.28689 7.60537 8.28189 7.60537 8.28064 7.60166C8.27939 7.59794 8.26439 7.59732 8.25627 7.60166L8.26252 7.61156ZM7.73877 10.1565C7.76141 10.1545 7.78404 10.1604 7.80276 10.1731C7.82147 10.1859 7.83509 10.2048 7.84127 10.2264C7.84797 10.2472 7.84953 10.2693 7.84583 10.2909C7.84214 10.3124 7.83329 10.3328 7.82002 10.3502C7.80502 10.3775 7.75752 10.3657 7.72002 10.3657C7.70139 10.3675 7.68264 10.3636 7.66632 10.3546C7.64999 10.3455 7.63688 10.3317 7.62877 10.3149C7.61564 10.2722 7.65252 10.2295 7.67002 10.1948L7.67627 10.1831C7.69425 10.1686 7.71584 10.1592 7.73877 10.1558" fill="white"/>
<path d="M9.56257 7.57324C9.51692 7.5769 9.47259 7.5902 9.43257 7.61224C9.38538 7.66096 9.35556 7.72362 9.34766 7.79067C9.33977 7.85773 9.35422 7.92551 9.38882 7.98367C9.46195 8.01834 9.53507 8.10377 9.4857 8.14648C9.27945 8.3941 8.74007 8.80391 8.7132 8.88191V8.88562V8.88934H8.71757C8.85064 8.91228 8.9866 8.91353 9.12007 8.89305V8.88934C9.36255 8.65945 9.585 8.40971 9.78507 8.14277C9.7582 8.11553 9.73007 8.09634 9.70195 8.0691C9.69522 8.06415 9.68976 8.0577 9.686 8.05029C9.68224 8.04287 9.68028 8.03468 9.68028 8.02638C9.68028 8.01808 9.68224 8.0099 9.686 8.00248C9.68976 7.99507 9.69522 7.98862 9.70195 7.98367C9.75374 7.93685 9.78512 7.87191 9.78943 7.80259C9.79375 7.73327 9.77067 7.66501 9.72507 7.61224C9.67456 7.58526 9.61729 7.57323 9.56007 7.57758L9.56257 7.57324ZM9.53445 7.79115C9.56882 7.78743 9.6082 7.82643 9.6282 7.87286C9.6482 7.91929 9.6382 7.97438 9.60507 7.98615C9.57195 7.99791 9.5257 7.95891 9.5032 7.90815C9.4807 7.85738 9.49382 7.80291 9.5282 7.79548C9.5282 7.79548 9.53132 7.79115 9.53445 7.79115Z" fill="white"/>
<path d="M5.81254 11.3606C5.7203 11.5218 5.6627 11.7001 5.64334 11.8844C5.62398 12.0687 5.64328 12.255 5.70004 12.4315C5.72525 12.4678 5.76119 12.4956 5.80293 12.5108C5.84467 12.5261 5.89016 12.5283 5.93317 12.5169C6.06129 12.455 6.12067 12.1635 6.08754 12.0582C6.04442 11.9802 6.01067 11.9685 5.96692 12.0347C5.87692 12.2371 5.83879 12.0966 5.83067 11.9802C5.81999 11.7882 5.82815 11.5956 5.85504 11.4051C5.87817 11.2454 5.85504 11.2918 5.81004 11.3581" fill="white"/>
<path d="M14.5963 10.7771C14.3994 10.2986 14.1232 9.82811 14.0338 9.6492C13.9444 9.4703 13.2838 8.4012 13.1869 8.27677C12.9713 7.99263 13.5363 8.39749 13.1151 7.82982C12.9563 7.67815 12.9469 7.67011 12.8113 7.54568C12.7488 7.4912 12.5813 7.39772 12.5538 7.55372C12.5392 7.66638 12.5441 7.78068 12.5682 7.89172C12.6106 7.99515 12.6676 8.09208 12.7376 8.17958C13.4452 9.22152 14.0604 10.3222 14.5763 11.4692C14.6676 11.4228 14.6482 10.8588 14.5938 10.7771" fill="white"/>
<path d="M13.7251 12.3691C13.6851 12.4156 13.8207 12.6291 13.9976 12.6254C14.2919 12.5908 14.5519 12.4038 14.7913 11.9179C14.8903 11.7512 14.9521 11.5654 14.9726 11.3731C15.0027 10.4511 14.9363 9.52858 14.7744 8.62019C14.7642 8.55679 14.7666 8.49203 14.7813 8.42952C14.8007 8.40228 14.8651 8.42952 14.8994 8.36762C14.9507 8.30571 14.7669 7.83462 14.6619 7.652C14.6244 7.57028 14.6113 7.51581 14.5494 7.65942C14.4746 7.82286 14.4393 8.00134 14.4463 8.18066C14.5869 9.26214 14.6294 10.2142 14.7232 11.2957C14.7388 11.4067 14.7145 11.5196 14.6544 11.6145C14.4044 11.9307 14.0871 12.1883 13.7251 12.3691Z" fill="white"/>
<path d="M17.1013 13.9522C16.8882 14.0884 16.8882 14.2475 17.0607 14.2512C17.2366 14.2556 17.4108 14.2146 17.5658 14.1321C17.7209 14.0496 17.8516 13.9285 17.945 13.7807C18.0297 13.5888 18.078 13.3832 18.0875 13.174C18.1275 12.1808 18.074 11.186 17.9275 10.2026C17.9089 10.1105 17.8991 10.0168 17.8982 9.9228C17.9182 9.87204 18.0132 9.93023 18.0457 9.86833C18.0982 9.81385 17.7994 9.38237 17.6932 9.19914C17.6569 9.11742 17.6444 9.06295 17.5819 9.2109C17.5116 9.37396 17.4899 9.55354 17.5194 9.72842C17.6771 10.8424 17.7758 11.9638 17.815 13.088C17.8077 13.1822 17.7877 13.2751 17.7557 13.3641C17.6753 13.5008 17.5786 13.6274 17.4675 13.7411C17.37 13.8191 17.1657 13.8971 17.0994 13.9553" fill="white"/>
<path d="M17.8632 11.3107C17.8594 11.0346 17.8701 10.7969 17.8594 10.5914C17.8488 10.3859 17.7663 9.61517 17.7401 9.45174C17.7138 9.28831 17.6813 9.03574 17.6413 8.83764C17.6178 8.72228 17.6055 8.60495 17.6044 8.48726C17.6201 8.43279 17.6882 8.49098 17.7188 8.42536C17.6836 8.12234 17.5892 7.82901 17.4407 7.56179C17.4019 7.48007 17.3288 7.50731 17.2413 7.63979C17.1569 7.72522 17.1882 7.9196 17.2194 8.10655C17.4513 9.323 17.5639 10.5588 17.5557 11.7967C17.5432 11.8939 17.8682 11.4971 17.8632 11.3107Z" fill="white"/>
<path d="M16.3019 9.78554C16.1688 9.78183 15.8894 9.49769 15.8082 9.33054C15.7833 9.24881 15.7888 9.16095 15.8238 9.08292C15.8738 9.04764 15.9488 9.00492 16.0057 9.04764C16.0057 9.04764 16.0644 9.1374 16.0532 9.14854C16.1257 9.18754 16.1576 9.16402 16.1651 9.12935C16.1694 9.07488 16.1426 9.03959 16.1426 8.97769C16.1732 8.8025 16.3501 8.77959 16.4176 8.88792C16.4651 8.98218 16.4906 9.08588 16.4919 9.19126C16.4919 9.24202 16.4194 9.18383 16.3788 9.19559C16.3382 9.20735 16.3282 9.2575 16.3251 9.30454C16.3163 9.43269 16.3038 9.63078 16.3019 9.78245" fill="white"/>
<path d="M13.8457 11.6174C13.8832 11.2398 13.8338 10.4778 13.8301 10.2555C13.8176 9.7349 13.7394 8.72771 13.7051 8.55995C13.6632 8.24114 13.8213 8.59523 13.7982 8.4089C13.7284 8.1104 13.5943 7.83038 13.4051 7.58804C13.3457 7.49457 13.3482 7.47538 13.2544 7.61157C13.1943 7.82059 13.1987 8.04263 13.2669 8.24919C13.3946 8.8595 13.4781 9.47805 13.5169 10.1001C13.5571 10.7554 13.5621 11.4123 13.5319 12.0681C13.6326 12.0681 13.7932 11.8824 13.8488 11.6168" fill="white"/>
<path d="M18.3169 11.0148C18.0838 10.5753 17.7282 10.0621 17.6344 9.88754C17.5407 9.71297 16.7388 8.40554 16.6382 8.28916C16.345 7.95054 16.7725 8.23469 16.5832 7.96602C16.481 7.83074 16.3649 7.70627 16.2369 7.59459C16.1688 7.54816 16.1257 7.45097 16.1032 7.61007C16.0912 7.75233 16.0876 7.89516 16.0925 8.03783C16.1081 8.13456 16.1483 8.22575 16.2094 8.30278C17.0019 9.37986 17.7054 10.5185 18.3132 11.7075C18.4025 11.6611 18.3719 11.0972 18.3169 11.0192" fill="white"/>
<path d="M15.4763 15.1797C15.435 15.192 15.3981 15.2156 15.3697 15.2477C15.3413 15.2798 15.3226 15.3192 15.3157 15.3613C15.3087 15.4034 15.3139 15.4467 15.3306 15.486C15.3473 15.5254 15.3748 15.5593 15.4101 15.5839C13.2182 15.5839 9.85506 15.5455 9.13693 15.5455C8.73193 15.5455 7.45631 15.4911 7.43256 15.4911C7.55944 15.6826 7.73793 15.835 7.94781 15.9312C8.15769 16.0274 8.39056 16.0634 8.62006 16.0352C9.59381 16.0352 14.1026 16.0234 15.3838 16.0234C15.3516 16.11 15.3421 16.2033 15.3563 16.2945C15.3705 16.3857 15.408 16.4718 15.4651 16.5447L15.4707 16.5484C15.4712 16.5499 15.4723 16.5511 15.4737 16.5519C15.475 16.5527 15.4766 16.553 15.4782 16.5527H15.4819C15.5676 16.5756 15.6069 16.5057 15.6344 16.4593C15.9621 16.4777 16.2906 16.4764 16.6182 16.4555C16.6663 16.5329 16.7151 16.6072 16.8057 16.5954C16.9651 16.5564 17.0907 16.5373 17.0963 16.1751C17.0963 16.1751 17.0794 15.561 16.7163 15.6C16.6301 15.6118 16.3901 15.6384 16.3901 15.6384C16.1107 15.6037 15.9044 15.6 15.5913 15.5839C15.6207 15.5455 15.6707 15.3784 15.6088 15.3196C15.5984 15.3111 15.5865 15.3047 15.5736 15.3007C15.5607 15.2968 15.5472 15.2954 15.5338 15.2967H15.5276C15.5276 15.2967 15.5219 15.2924 15.5207 15.2886V15.2849C15.5065 15.2507 15.4948 15.2155 15.4857 15.1797H15.4788H15.4763ZM15.6276 16.0587C15.9457 16.0742 16.2457 16.0624 16.5651 16.0779C16.5847 16.1041 16.5946 16.1363 16.593 16.1689C16.5914 16.2016 16.5784 16.2326 16.5563 16.2568C16.5563 16.2612 16.5563 16.2612 16.5519 16.2612H16.5438C16.4401 16.2568 16.3807 16.2568 16.2769 16.2531C16.2769 16.2451 16.2732 16.2414 16.2732 16.2339C16.2482 16.1522 16.0707 16.1596 16.0282 16.2259V16.2296V16.2376V16.2451C16.0273 16.2489 16.0273 16.253 16.0282 16.2568C15.892 16.2656 15.7552 16.2604 15.6201 16.2414C15.5807 16.1869 15.5851 16.086 15.6332 16.0587" fill="white"/>
<path d="M9.93191 7.94587C9.71879 8.62249 10.0569 9.36968 10.2869 9.29911C10.4557 9.37278 10.5613 9.01559 10.6307 8.6262C10.6788 8.51725 10.7138 8.50239 10.7382 8.55997C10.7313 9.0812 10.7713 9.1982 10.8913 9.35359C10.9234 9.38785 10.9622 9.41532 11.0053 9.43433C11.0484 9.45334 11.095 9.4635 11.1422 9.4642C11.1894 9.46489 11.2362 9.45611 11.2799 9.43837C11.3236 9.42064 11.3632 9.39432 11.3963 9.36101C11.4138 9.34554 11.605 9.13197 11.605 9.13197C11.6152 9.11903 11.628 9.10843 11.6427 9.10089C11.6574 9.09334 11.6735 9.08904 11.69 9.08828C11.7066 9.08751 11.723 9.0903 11.7384 9.09645C11.7537 9.10261 11.7675 9.11198 11.7788 9.12392C11.8413 9.18582 11.8325 9.29911 11.9663 9.37154C12.0373 9.39915 12.1152 9.40463 12.1894 9.38727C12.2637 9.3699 12.3308 9.33051 12.3819 9.27435C12.4588 9.13073 12.4757 9.07997 12.5107 9.02673C12.5663 8.94501 12.6582 8.9803 12.6582 9.00754C12.65 9.05397 12.5957 9.09668 12.6319 9.1784C12.6982 9.23287 12.7125 9.1982 12.7519 9.18644C12.8875 9.11216 12.9894 8.78592 12.9894 8.78592C12.9938 8.66211 12.9338 8.67325 12.8919 8.70049C12.85 8.72773 12.8375 8.74692 12.785 8.7822C12.7225 8.78963 12.5907 8.8404 12.5288 8.73144C12.4625 8.59897 12.4625 8.41263 12.4119 8.28016C12.4119 8.27273 12.3263 8.07401 12.4063 8.05854C12.4457 8.06659 12.5313 8.09382 12.5463 8.01211C12.5888 7.93411 12.4557 7.70878 12.3644 7.59982C12.3478 7.57696 12.3261 7.55814 12.3011 7.5448C12.276 7.53145 12.2482 7.52392 12.2198 7.52279C12.1914 7.52166 12.1631 7.52695 12.137 7.53825C12.111 7.54956 12.0878 7.56659 12.0694 7.58806C12.0169 7.65768 11.9892 7.7426 11.9907 7.82949C11.979 7.88579 11.9793 7.94387 11.9916 8.00005C12.0038 8.05622 12.0278 8.10924 12.0619 8.15573C12.1871 8.35421 12.2445 8.58731 12.2257 8.82059C12.2043 8.85867 12.1729 8.8903 12.1348 8.9121C12.0967 8.9339 12.0534 8.94506 12.0094 8.9444C11.9532 8.92892 11.8594 8.90168 11.8094 8.49744C11.8213 8.17897 11.7849 7.86053 11.7013 7.55278C11.6582 7.42897 11.6288 7.30516 11.525 7.5212C11.4794 7.58845 11.45 7.6652 11.4392 7.7455C11.4284 7.8258 11.4363 7.9075 11.4625 7.98425C11.5424 8.21533 11.5651 8.46201 11.5288 8.70359C11.4931 8.77314 11.4513 8.83943 11.4038 8.90168C11.3735 8.94061 11.3292 8.96642 11.2802 8.97369C11.2311 8.98096 11.1811 8.96913 11.1407 8.94068C11.0962 8.91511 11.0587 8.87921 11.0313 8.83607C11.004 8.79293 10.9877 8.74385 10.9838 8.69306C11.0038 8.42849 10.9967 8.16259 10.9625 7.89944C10.9 7.75149 10.7925 7.80597 10.7482 7.84868C10.5393 8.10852 10.4035 8.41839 10.3544 8.74692C10.2919 8.96482 10.2294 8.9023 10.1832 8.81316C10.0732 8.70049 10.065 7.79792 9.93316 7.94649" fill="white"/>
<path d="M10.6519 9.35049C10.6519 9.3542 10.6519 9.3542 10.6457 9.3542V9.35792C10.6319 9.36597 10.6138 9.3932 10.5769 9.42416C10.5457 9.46537 10.5234 9.51258 10.5116 9.56278C10.4998 9.61297 10.4986 9.66506 10.5082 9.71573C10.5082 9.73554 10.6251 10.0872 10.7238 10.3416C10.8066 10.615 10.8344 10.9019 10.8057 11.186C10.647 11.5509 10.3808 11.8599 10.0419 12.0724C9.99257 12.0973 9.93796 12.1103 9.88256 12.1103C9.82717 12.1103 9.77256 12.0973 9.72319 12.0724V12.0687C9.69252 12.0451 9.66848 12.0141 9.65338 11.9787C9.63828 11.9432 9.63262 11.9045 9.63694 11.8663C9.97848 11.6572 10.2467 11.349 10.4051 10.9835C10.4799 10.7785 10.4872 10.5553 10.4257 10.3459C10.4063 10.2398 10.3615 10.1398 10.2951 10.0543V10.05C10.3382 10.0271 10.4488 10.12 10.4676 10.0618C10.4357 9.89494 10.3598 9.73944 10.2476 9.61111C10.2329 9.5896 10.2134 9.57167 10.1907 9.55867C10.168 9.54566 10.1426 9.53791 10.1165 9.53601C10.0903 9.5341 10.0641 9.53809 10.0397 9.54766C10.0153 9.55724 9.99342 9.57216 9.97569 9.5913C9.88444 9.64949 9.86506 9.85563 9.90756 10.0389C9.95756 10.1707 10.0951 10.1943 10.1888 10.4666V10.4703C10.207 10.5647 10.2014 10.6621 10.1726 10.7539C10.009 10.9785 9.81534 11.1801 9.59694 11.3531L9.59319 11.3568V11.3605H9.58756V11.3568C9.58961 11.3271 9.58961 11.2974 9.58756 11.2677C9.58756 11.1897 9.61569 11.0027 9.61381 10.9681V10.9643C9.45006 11.0844 9.39381 11.4503 9.36381 11.5593C8.94568 11.8167 8.55457 12.1149 8.19631 12.4494C8.05319 12.6971 9.18006 12.1616 9.31006 12.0997C9.31006 12.0997 9.31006 12.0997 9.31506 12.1034C9.33894 12.1838 9.37273 12.2609 9.41569 12.3331C9.48119 12.4279 9.57487 12.5002 9.68373 12.5399C9.79259 12.5796 9.91123 12.5848 10.0232 12.5547C10.3933 12.3772 10.7002 12.0924 10.9032 11.7382C10.9363 11.6837 10.9901 11.641 11.0382 11.6837C11.1548 11.9094 11.3339 12.0975 11.5544 12.2262C11.775 12.3549 12.028 12.4188 12.2838 12.4104C12.4244 12.2204 12.3582 12.1232 12.3007 12.0879C12.2819 12.0724 11.9969 11.948 11.9532 11.8236C11.9263 11.7109 11.9926 11.6094 12.1294 11.532C12.5204 11.4903 12.9057 11.4072 13.2788 11.2844C13.292 11.1314 13.3344 10.9822 13.4038 10.8449C13.4174 10.8139 13.439 10.787 13.4663 10.7669V10.7632V10.7601V10.752L13.4038 10.7093L12.1538 10.7019C12.1413 10.6968 12.1296 10.6901 12.1188 10.6821V10.6783V10.6746V10.6703V10.6666V10.6629V10.6592C12.1287 10.6462 12.1425 10.6366 12.1582 10.6319C12.4588 10.5892 12.9876 10.4914 13.0213 9.92001C13.0305 9.85576 13.0263 9.79032 13.0089 9.72774C12.9916 9.66516 12.9615 9.60675 12.9205 9.55613C12.8795 9.5055 12.8285 9.46372 12.7706 9.43335C12.7127 9.40299 12.6491 9.38469 12.5838 9.37959C12.4587 9.40618 12.3488 9.47981 12.2774 9.58499C12.2059 9.69017 12.1784 9.8187 12.2007 9.94354C12.1901 10.0172 12.2251 10.1689 12.1551 10.1843C11.6951 10.2351 11.1938 10.5558 11.1757 10.7836H11.1694V10.7873H11.1632L11.1582 10.7836C11.1343 10.7695 11.1155 10.7484 11.1043 10.7232C11.0931 10.698 11.0901 10.67 11.0957 10.6431C11.0745 10.2291 10.9668 9.82392 10.7794 9.45325C10.7169 9.37958 10.6869 9.35235 10.6676 9.34863H10.6601L10.6519 9.35049ZM12.4863 9.85811C12.5211 9.85437 12.5561 9.86413 12.5838 9.88535C12.6059 9.89627 12.6246 9.9128 12.6381 9.93325C12.6516 9.9537 12.6594 9.97733 12.6607 10.0017V10.0098V10.0135V10.0172C12.6607 10.0172 12.6563 10.0209 12.6532 10.0253C12.6288 10.0525 12.5757 10.0482 12.5219 10.0135C12.5011 10.002 12.4833 9.98578 12.47 9.96621C12.4566 9.94664 12.4481 9.92425 12.4451 9.90082V9.89649C12.4451 9.88906 12.4469 9.88535 12.4507 9.88535V9.8773C12.4507 9.87359 12.4507 9.87358 12.4569 9.86925C12.4609 9.86551 12.4657 9.86259 12.4708 9.86068C12.476 9.85876 12.4814 9.85789 12.4869 9.85811H12.4863ZM11.3251 11.0343H11.3394C11.5117 11.0701 11.6867 11.0921 11.8626 11.0999C12.0076 11.1117 12.0788 11.2361 11.9438 11.2906C11.8088 11.3451 11.6813 11.3803 11.6813 11.6001C11.6993 11.6607 11.6993 11.7252 11.6813 11.7858C11.6813 11.7875 11.6807 11.7891 11.6797 11.7904C11.6787 11.7918 11.6773 11.7927 11.6757 11.7933V11.7976V11.8013H11.6726L11.6663 11.805C11.6659 11.8062 11.6652 11.8073 11.6642 11.8081C11.6632 11.8088 11.662 11.8093 11.6607 11.8093C11.6276 11.8131 11.5813 11.7741 11.5457 11.7586C11.4501 11.6934 11.3698 11.6086 11.31 11.5101C11.2503 11.4115 11.2126 11.3014 11.1994 11.1872C11.1977 11.1688 11.1998 11.1502 11.2054 11.1325C11.211 11.1148 11.2202 11.0984 11.2323 11.0843C11.2444 11.0702 11.2592 11.0586 11.2759 11.0502C11.2926 11.0419 11.3108 11.0369 11.3294 11.0355" fill="white"/>
<path d="M7.30006 7.95489C7.44506 8.02856 7.71444 7.99761 7.70319 7.7407C7.70319 7.71718 7.69881 7.6398 7.69694 7.61689C7.66881 7.53951 7.58694 7.55499 7.57194 7.6367C7.56631 7.65961 7.58069 7.70294 7.56069 7.71842C7.54069 7.73389 7.50006 7.72708 7.50006 7.65527C7.49859 7.63275 7.49031 7.61118 7.47631 7.59337C7.47228 7.58913 7.46728 7.5859 7.46174 7.58397C7.4562 7.58203 7.45026 7.58143 7.44444 7.58222C7.42506 7.58594 7.42506 7.58965 7.41631 7.60884C7.40891 7.62866 7.40511 7.64962 7.40506 7.67075C7.40131 7.69799 7.39194 7.70541 7.37506 7.70975C7.35819 7.71408 7.36194 7.71346 7.34569 7.7017C7.32944 7.68994 7.32506 7.68251 7.32506 7.66518C7.32484 7.64437 7.32253 7.62363 7.31819 7.60327C7.30948 7.59152 7.29686 7.58319 7.28256 7.57975C7.20319 7.57975 7.19756 7.68127 7.20319 7.71965C7.19569 7.7277 7.19319 7.90537 7.30006 7.95737" fill="white"/>
<path d="M11.52 9.94567C11.6644 10.0193 12.0069 9.97663 11.9244 9.72777C11.9244 9.70424 11.9194 9.62686 11.9157 9.60396C11.8869 9.52658 11.8075 9.54577 11.7907 9.62377C11.7863 9.65101 11.8019 9.69372 11.7813 9.7092C11.7607 9.72467 11.7225 9.7092 11.7238 9.63925C11.7223 9.61784 11.714 9.59746 11.7 9.58105C11.696 9.57665 11.6909 9.57329 11.6852 9.57124C11.6796 9.56919 11.6735 9.56852 11.6675 9.56929C11.6488 9.57301 11.6488 9.57672 11.6375 9.59653C11.6315 9.61539 11.6279 9.63495 11.6269 9.65472C11.6269 9.68196 11.6157 9.69001 11.5982 9.69372C11.5807 9.69744 11.5857 9.69744 11.5694 9.68567C11.5532 9.67391 11.5482 9.6702 11.5482 9.65101C11.549 9.62997 11.5458 9.60898 11.5388 9.5891C11.5348 9.58318 11.5296 9.5781 11.5236 9.57417C11.5176 9.57024 11.5109 9.56753 11.5038 9.5662C11.4257 9.5662 11.4219 9.6671 11.4244 9.7061C11.42 9.70982 11.4163 9.88872 11.5225 9.9432" fill="white"/>
<path d="M13.9819 9.1203C14.1251 9.19397 14.3957 9.1593 14.3844 8.9024C14.3844 8.88321 14.3801 8.80521 14.3782 8.7823C14.3476 8.70802 14.2663 8.72349 14.2532 8.80521C14.2463 8.82873 14.2613 8.87145 14.2401 8.88321C14.2301 8.89868 14.1826 8.89064 14.1844 8.81697C14.1816 8.79475 14.1735 8.77352 14.1607 8.75506C14.1509 8.7507 14.1401 8.74919 14.1294 8.75073C14.1101 8.75073 14.1101 8.75506 14.0988 8.77426C14.0923 8.79431 14.0886 8.81512 14.0876 8.83616C14.0876 8.85906 14.0769 8.86711 14.0588 8.87083C14.0407 8.87454 14.0438 8.87454 14.0307 8.86278C14.0245 8.85925 14.0194 8.85421 14.0158 8.84813C14.0122 8.84206 14.0102 8.83516 14.0101 8.82811C14.0092 8.80574 14.0059 8.78352 14.0001 8.76187C13.9897 8.75418 13.9778 8.74889 13.9651 8.7464C13.8869 8.7464 13.8807 8.8473 13.8857 8.88259C13.8807 8.89002 13.8769 9.0683 13.9844 9.11968" fill="white"/>
<path d="M15.2557 11.1858C15.1695 11.3271 15.1172 11.486 15.1027 11.6504C15.0881 11.8148 15.1118 11.9803 15.172 12.1342C15.2261 12.2976 15.3367 12.4369 15.4845 12.5273C15.5061 12.5506 15.533 12.5684 15.5629 12.5793C15.5929 12.5902 15.625 12.5939 15.6567 12.5901C15.6884 12.5863 15.7187 12.5751 15.7452 12.5574C15.7716 12.5397 15.7934 12.516 15.8088 12.4883C15.9557 12.3174 15.9588 11.8853 16.027 11.7999C16.077 11.6408 16.1976 11.6674 16.257 11.738C16.3102 11.8205 16.3821 11.8896 16.4669 11.9398C16.4948 11.9727 16.529 11.9997 16.5675 12.0193C16.6061 12.0389 16.6482 12.0507 16.6913 12.054C16.7345 12.0572 16.7779 12.052 16.819 12.0384C16.8601 12.0249 16.8981 12.0034 16.9307 11.9751C17.0526 11.8985 17.1408 11.7791 17.1776 11.6408C17.2316 10.9861 17.2376 10.3284 17.1957 9.67287C17.1888 9.62644 17.0538 8.86377 17.0538 8.85635C17.0538 8.84892 17.0345 8.46758 17.0207 8.37782C17.017 8.33882 17.0088 8.32768 17.0438 8.33139C17.0807 8.37039 17.0845 8.37411 17.1063 8.38154C17.1432 8.38958 17.1763 8.31963 17.1544 8.25339C17.0413 8.02001 16.9251 7.78292 16.8107 7.55387C16.7845 7.51858 16.7482 7.48763 16.7032 7.55758C16.6759 7.5853 16.6544 7.61813 16.64 7.65416C16.6256 7.69019 16.6186 7.7287 16.6195 7.76744C16.6301 7.93458 16.6563 8.10606 16.6657 8.2732C16.712 8.55673 16.7576 8.84458 16.8038 9.13244C16.8463 9.74282 16.8588 10.3031 16.9013 10.9134C16.8944 11.1697 16.8238 11.5164 16.7532 11.5473C16.7532 11.5473 16.6526 11.6173 16.5826 11.543C16.4871 11.4276 16.4034 11.3032 16.3326 11.1716C16.2294 11.067 16.1607 11.0942 16.0869 11.1716C15.9059 11.4532 15.7616 11.7565 15.6576 12.0742C15.6207 12.1361 15.5213 12.1905 15.4113 12.0704C15.2659 11.8001 15.2125 11.4905 15.2588 11.1877" fill="white"/>
<path d="M14.0463 7.61989C14.1162 7.67972 14.17 7.75589 14.2028 7.8415C14.2355 7.92711 14.2462 8.01946 14.2338 8.11018C14.2081 8.28537 14.1406 8.48161 14.0913 8.45251C14.0419 8.42342 14.1269 8.27732 14.0769 8.11761C14.0463 8.01299 13.8719 7.82604 13.8894 7.76785C13.8821 7.74674 13.8811 7.72401 13.8864 7.70233C13.8917 7.68065 13.903 7.66091 13.9192 7.6454C13.9354 7.62989 13.9557 7.61926 13.9778 7.61474C13.9998 7.61023 14.0227 7.61201 14.0438 7.61989" fill="white"/>
<path d="M15.6713 11.3603C15.6828 11.1035 15.6736 10.8462 15.6438 10.5909C15.6363 10.3884 15.4369 8.72009 15.3938 8.56471C15.345 8.27314 15.5888 8.52571 15.5607 8.35485C15.4769 8.14066 15.2675 7.82557 15.2025 7.63923C15.1607 7.55752 15.1782 7.48757 15.0894 7.61943C15.0133 7.8553 14.9863 8.10401 15.01 8.35052C15.2593 9.50647 15.3916 10.6841 15.405 11.8661C15.505 11.8661 15.62 11.6135 15.67 11.3603" fill="white"/>
<path d="M17.2682 9.62008C17.3882 9.69004 17.4557 10.0534 17.4432 10.1568C17.4207 10.3475 17.3588 10.5536 17.3132 10.5282C17.2676 10.5028 17.3232 10.2441 17.2994 10.1667C17.2713 10.0534 17.1119 9.84727 17.1288 9.78537C17.0969 9.65661 17.1988 9.60275 17.2682 9.62194" fill="white"/>
<path d="M9.1363 10.698C9.24755 10.745 9.31443 11.0131 9.3013 11.0911C9.2788 11.231 9.21943 11.3789 9.1763 11.3628C9.13318 11.3467 9.18568 11.153 9.16255 11.0948C9.1538 10.9512 8.99755 10.8769 9.00068 10.815C8.9713 10.7023 9.06318 10.6825 9.13505 10.698" fill="white"/>
<path d="M6.13003 7.53045C6.29628 7.58492 6.30566 7.85731 6.29503 7.9384C6.27253 8.08264 6.21316 8.23802 6.17003 8.21883C6.12691 8.19964 6.17003 8.00464 6.14628 7.94273C6.12503 7.8505 5.98191 7.70131 6.00003 7.65488C5.96816 7.55769 6.06253 7.51064 6.13191 7.53107" fill="white"/>
<path d="M9.4069 8.81418C9.34193 8.86505 9.29678 8.93665 9.27912 9.01678C9.26145 9.09692 9.27237 9.18065 9.31002 9.2537C9.33202 9.28603 9.36406 9.31035 9.40129 9.32297C9.43852 9.3356 9.4789 9.33584 9.51627 9.32366C9.64127 9.34285 9.71502 9.06304 9.71502 9.06304C9.71502 9.06304 9.71877 8.98504 9.5719 9.13299C9.5094 9.14847 9.50127 9.12123 9.48502 9.08223C9.47037 9.0093 9.47687 8.93375 9.50377 8.86432C9.5269 8.79437 9.47877 8.76342 9.4069 8.81418Z" fill="white"/>
<path d="M10.3613 7.42478C10.3056 7.46954 10.2597 7.52506 10.2264 7.58796C10.1931 7.65086 10.1731 7.71982 10.1676 7.79064C10.1619 7.88349 10.1463 7.88349 10.2026 7.94602C10.2444 8.01225 10.2851 8.00421 10.3663 7.95406C10.408 7.92467 10.4363 7.88018 10.4451 7.83025C10.4651 7.7213 10.3432 7.8804 10.3263 7.75968C10.3094 7.63897 10.3776 7.6043 10.4513 7.49164C10.4513 7.41797 10.4513 7.36783 10.3601 7.4254" fill="white"/>
<path d="M11.1319 7.57653C11.1011 7.71604 11.0825 7.85791 11.0763 8.00058C11.0532 8.10582 11.1763 8.15225 11.2307 8.01606C11.2864 7.86802 11.316 7.7116 11.3182 7.55363C11.2932 7.39391 11.1932 7.40196 11.1307 7.57653" fill="white"/>
<path d="M15.9819 10.3262C15.9994 10.3107 16.6651 9.78202 16.6651 9.78202C16.7332 9.75479 16.7188 10.0544 16.6882 10.0501C16.4859 10.2713 16.2471 10.4568 15.9819 10.5985C15.9494 10.6221 15.9163 10.3924 15.9819 10.3262Z" fill="white"/>
<path d="M16.5901 10.3219C16.7088 10.3881 16.7551 10.7688 16.7419 10.8741C16.7463 11.0765 16.6288 11.2393 16.5832 11.2164C16.5376 11.1935 16.5888 10.9638 16.5657 10.8821C16.5144 10.7583 16.4773 10.6291 16.4551 10.4971C16.4219 10.3683 16.5176 10.2984 16.5901 10.3219Z" fill="white"/>
<path d="M12.625 11.9707C12.6794 11.9021 12.7424 11.8408 12.8125 11.7881C12.8341 11.7777 12.8585 11.7747 12.882 11.7797C12.9054 11.7846 12.9265 11.7972 12.9419 11.8153C12.9532 11.8853 12.9007 11.9552 12.9175 12.0524C12.9307 12.0914 12.9419 12.1385 13.0063 12.1187C13.0486 12.0816 13.0982 12.0535 13.152 12.0361C13.2057 12.0187 13.2625 12.0125 13.3188 12.0178C13.4019 12.0178 13.4025 12.1731 13.3525 12.1731C13.206 12.2141 13.0642 12.2701 12.9294 12.3403C12.92 12.3472 12.9092 12.3523 12.8978 12.3551C12.8864 12.3579 12.8745 12.3584 12.8629 12.3566C12.8512 12.3548 12.8401 12.3508 12.83 12.3447C12.82 12.3386 12.8113 12.3306 12.8044 12.3211C12.7915 12.301 12.7837 12.2781 12.7816 12.2544C12.7796 12.2307 12.7833 12.2069 12.7925 12.1849C12.7988 12.1069 12.77 12.0611 12.7107 12.0685C12.6657 12.0995 12.6275 12.1149 12.6057 12.0605C12.5975 12.0178 12.5944 11.9942 12.6232 11.9707" fill="white"/>
<path d="M17.2919 12.1765C17.3109 12.1958 17.3215 12.2217 17.3215 12.2486C17.3215 12.2756 17.3109 12.3014 17.2919 12.3207C17.2444 12.3715 17.2125 12.3944 17.1669 12.4445C17.1463 12.4873 17.1325 12.5492 17.1988 12.5684C17.3238 12.6074 17.6113 12.4012 17.6113 12.3932C17.6269 12.3794 17.6378 12.3612 17.6427 12.3411C17.6476 12.321 17.6463 12.2998 17.6388 12.2805C17.6113 12.2458 17.5513 12.265 17.51 12.265C17.4894 12.265 17.4257 12.2495 17.4563 12.1914C17.4775 12.1554 17.4951 12.1175 17.5088 12.0781C17.5269 12.0279 17.5119 11.997 17.4394 11.9691C17.3804 11.9595 17.3203 11.9595 17.2613 11.9691C17.2188 11.9809 17.2038 12.0044 17.1988 12.0589C17.1988 12.1443 17.2494 12.1406 17.2988 12.1753" fill="white"/>
</svg>
