<svg width="24" height="24" viewBox="0 0 24 24" fill="none" xmlns="http://www.w3.org/2000/svg">
<path d="M8.92031 20.9996C8.72494 20.9996 8.52956 20.9315 8.37532 20.7855L3.22365 15.9109C2.92545 15.6288 2.92545 15.1618 3.22365 14.8796C3.52185 14.5974 4.01542 14.5974 4.31362 14.8796L9.4653 19.7542C9.7635 20.0363 9.7635 20.5034 9.4653 20.7855C9.31105 20.9218 9.11568 20.9996 8.92031 20.9996Z" fill="#6B757E"/>
<path d="M8.92032 21C8.49872 21 8.14911 20.6692 8.14911 20.2703V3.72973C8.14911 3.33081 8.49872 3 8.92032 3C9.34191 3 9.69153 3.33081 9.69153 3.72973V20.2703C9.69153 20.6692 9.34191 21 8.92032 21Z" fill="#6B757E"/>
<path d="M20.2314 9.33455C20.036 9.33455 19.8406 9.26644 19.6864 9.1205L14.5347 4.2459C14.2365 3.96374 14.2365 3.49671 14.5347 3.21455C14.8329 2.93239 15.3265 2.93239 15.6247 3.21455L20.7764 8.08915C21.0746 8.37131 21.0746 8.83833 20.7764 9.1205C20.6221 9.26644 20.4267 9.33455 20.2314 9.33455Z" fill="#6B757E"/>
<path d="M15.0694 21C14.6478 21 14.2982 20.6692 14.2982 20.2703V3.72973C14.2982 3.33081 14.6478 3 15.0694 3C15.491 3 15.8406 3.33081 15.8406 3.72973V20.2703C15.8406 20.6692 15.5013 21 15.0694 21Z" fill="#6B757E"/>
</svg>
