<svg width="24" height="24" viewBox="0 0 24 24" fill="none" xmlns="http://www.w3.org/2000/svg">
<path d="M9.63415 19C9.44926 19 9.26437 18.9281 9.1184 18.7742L3.21165 12.5428C2.92945 12.2451 2.92945 11.7523 3.21165 11.4546L9.1184 5.22328C9.4006 4.92557 9.86769 4.92557 10.1499 5.22328C10.4321 5.52099 10.4321 6.01375 10.1499 6.31146L4.75889 11.9987L10.1499 17.686C10.4321 17.9837 10.4321 18.4764 10.1499 18.7742C10.0137 18.9281 9.81904 19 9.63415 19Z" fill="#6B757E"/>
<path d="M20.2702 12.7684H3.89279C3.49382 12.7684 3.16296 12.4193 3.16296 11.9985C3.16296 11.5776 3.49382 11.2285 3.89279 11.2285H20.2702C20.6691 11.2285 21 11.5776 21 11.9985C21 12.4193 20.6691 12.7684 20.2702 12.7684Z" fill="#6B757E"/>
</svg>
