<svg width="24" height="24" viewBox="0 0 24 24" fill="none" xmlns="http://www.w3.org/2000/svg">
<path d="M11.9757 13.7291C10.2527 13.7291 8.84607 12.3225 8.84607 10.5994C8.84607 8.87632 10.2527 7.46973 11.9757 7.46973C13.6988 7.46973 15.1054 8.87632 15.1054 10.5994C15.1054 12.3225 13.6988 13.7291 11.9757 13.7291ZM11.9757 8.79721C10.9823 8.79721 10.1648 9.606 10.1648 10.6082C10.1648 11.6104 10.9735 12.4192 11.9757 12.4192C12.9779 12.4192 13.7867 11.6104 13.7867 10.6082C13.7867 9.606 12.9779 8.79721 11.9757 8.79721Z" fill="#6B757E"/>
<path d="M16.5 20C16.1395 20 15.8791 20.4008 15.8791 18.7254C15.8791 17.0501 14.1297 15.6888 11.9758 15.6888C9.82198 15.6888 8.07253 17.0501 8.07253 18.7254C7.99999 20.5 7.36042 20 6.99998 20C6.63955 20 6.75385 19.0832 6.75385 18.7254C6.75385 16.3345 9.09231 14.3799 11.9758 14.3799C14.8593 14.3799 17.1978 16.3258 17.1978 18.7254C17.1978 19.0832 16.8604 20 16.5 20Z" fill="#6B757E"/>
<path d="M2 12C2 17.5122 6.4878 22 12 22C17.5122 22 22 17.5122 22 12.0098C22 10.8352 21.7995 9.68297 21.3986 8.58537L20.0878 9.24877C20.3805 10.1366 20.5366 11.0634 20.5366 12C20.5366 16.7122 16.7024 20.5366 12 20.5366C7.29756 20.5366 3.46341 16.7122 3.46341 12C3.46341 7.28781 7.29756 3.46341 12 3.46341C12.9463 3.46341 13.8732 3.60978 14.761 3.91222L15.3561 2.57263C14.2854 2.19291 13.1605 2 12 2C6.4878 2 2 6.4878 2 12Z" fill="#6B757E"/>
<circle cx="18.5" cy="5.5" r="4" stroke="#6B757E"/>
<path fill-rule="evenodd" clip-rule="evenodd" d="M20.3773 3.62272C20.5409 3.78635 20.5409 4.05164 20.3773 4.21527L17.2153 7.37728C17.0516 7.54091 16.7863 7.54091 16.6227 7.37728C16.4591 7.21365 16.4591 6.94836 16.6227 6.78473L19.7847 3.62272C19.9484 3.45909 20.2137 3.45909 20.3773 3.62272Z" fill="#6B757E"/>
<path fill-rule="evenodd" clip-rule="evenodd" d="M16.6227 3.62272C16.7863 3.45909 17.0516 3.45909 17.2153 3.62272L20.3773 6.78473C20.5409 6.94836 20.5409 7.21365 20.3773 7.37728C20.2137 7.54091 19.9484 7.54091 19.7847 7.37728L16.6227 4.21527C16.4591 4.05164 16.4591 3.78635 16.6227 3.62272Z" fill="#6B757E"/>
</svg>
