<svg width="24" height="24" viewBox="0 0 24 24" fill="none" xmlns="http://www.w3.org/2000/svg">
<path fill-rule="evenodd" clip-rule="evenodd" d="M8.48898 2C8.9032 2 9.23898 2.33579 9.23898 2.75V5.44745C9.23898 5.86166 8.9032 6.19745 8.48898 6.19745C8.07477 6.19745 7.73898 5.86166 7.73898 5.44745V2.75C7.73898 2.33579 8.07477 2 8.48898 2Z" fill="#6B757E"/>
<path fill-rule="evenodd" clip-rule="evenodd" d="M16.0714 2C16.4856 2 16.8214 2.33579 16.8214 2.75V5.44745C16.8214 5.86166 16.4856 6.19745 16.0714 6.19745C15.6572 6.19745 15.3214 5.86166 15.3214 5.44745V2.75C15.3214 2.33579 15.6572 2 16.0714 2Z" fill="#6B757E"/>
<path fill-rule="evenodd" clip-rule="evenodd" d="M3.47391 9.125C3.47391 8.71079 3.80969 8.375 4.22391 8.375H20.3365C20.7507 8.375 21.0865 8.71079 21.0865 9.125C21.0865 9.53921 20.7507 9.875 20.3365 9.875H4.22391C3.80969 9.875 3.47391 9.53921 3.47391 9.125Z" fill="#6B757E"/>
<path d="M19.1138 15.1314L15.7586 18.3144C15.6259 18.4403 15.5027 18.6741 15.4743 18.8449L15.2942 20.0588C15.2278 20.4994 15.5501 20.8051 16.0145 20.7421L17.294 20.5713C17.4741 20.5443 17.73 20.4274 17.8532 20.3015L21.2085 17.1186C21.7866 16.5701 22.0615 15.9317 21.2085 15.1225C20.3649 14.3222 19.692 14.583 19.1138 15.1314Z" stroke="#6B757E" stroke-width="1.5" stroke-miterlimit="10" stroke-linecap="round" stroke-linejoin="round"/>
<path d="M18.6304 15.5898C18.9148 16.5609 19.7109 17.3162 20.7345 17.586" stroke="#6B757E" stroke-width="1.5" stroke-miterlimit="10" stroke-linecap="round" stroke-linejoin="round"/>
<path fill-rule="evenodd" clip-rule="evenodd" d="M5.33166 5.52914C4.76361 6.12176 4.45471 7.01234 4.45471 8.2156V15.7844C4.45471 16.9877 4.76361 17.8782 5.33166 18.4709C5.89972 19.0635 6.83721 19.4733 8.32327 19.4733H12C12.4017 19.4733 12.7274 19.815 12.7274 20.2366C12.7274 20.6582 12.4017 21 12 21H8.32327C6.59219 21 5.23173 20.5193 4.30611 19.5537C3.38049 18.588 3 17.2525 3 15.7844V8.2156C3 6.74753 3.38049 5.412 4.30611 4.44634C5.23173 3.48068 6.59219 3 8.32327 3H15.6767C17.4078 3 18.7683 3.48068 19.6939 4.44634C20.6195 5.412 21 6.74753 21 8.2156V11.3322C21 11.7538 20.6744 12.0955 20.2726 12.0955C19.8709 12.0955 19.5453 11.7538 19.5453 11.3322V8.2156C19.5453 7.01234 19.2364 6.12176 18.6683 5.52914C18.1003 4.93651 17.1628 4.52675 15.6767 4.52675H8.32327C6.83721 4.52675 5.89972 4.93651 5.33166 5.52914Z" fill="#6B757E"/>
<path d="M8.741 12.75H8.759" stroke="#6B757E" stroke-width="2" stroke-linecap="round" stroke-linejoin="round"/>
<path d="M8.741 16.75H8.759" stroke="#6B757E" stroke-width="2" stroke-linecap="round" stroke-linejoin="round"/>
<path d="M12.741 12.75H12.759" stroke="#6B757E" stroke-width="2" stroke-linecap="round" stroke-linejoin="round"/>
</svg>
