<svg width="24" height="24" viewBox="0 0 24 24" fill="none" xmlns="http://www.w3.org/2000/svg">
<path fill-rule="evenodd" clip-rule="evenodd" d="M8.30769 2C8.69005 2 9 2.27739 9 2.61957V5.09783C9 5.44 8.69005 5.71739 8.30769 5.71739C7.92534 5.71739 7.61539 5.44 7.61539 5.09783V2.61957C7.61539 2.27739 7.92534 2 8.30769 2Z" fill="#6B757E"/>
<path fill-rule="evenodd" clip-rule="evenodd" d="M15.6923 2C16.0747 2 16.3846 2.27739 16.3846 2.61957V5.09783C16.3846 5.44 16.0747 5.71739 15.6923 5.71739C15.31 5.71739 15 5.44 15 5.09783V2.61957C15 2.27739 15.31 2 15.6923 2Z" fill="#6B757E"/>
<path fill-rule="evenodd" clip-rule="evenodd" d="M3.46153 8.47601C3.46153 8.13383 3.77149 7.85645 4.15384 7.85645H19.8461C20.2285 7.85645 20.5385 8.13383 20.5385 8.47601C20.5385 8.81819 20.2285 9.09558 19.8461 9.09558H4.15384C3.77149 9.09558 3.46153 8.81819 3.46153 8.47601Z" fill="#6B757E"/>
<path fill-rule="evenodd" clip-rule="evenodd" d="M5.29578 5.3718C4.70434 5.99282 4.38462 6.92847 4.38462 8.175V15.825C4.38462 17.0715 4.70434 18.0072 5.29578 18.6282C5.8786 19.2402 6.82426 19.65 8.30769 19.65H15.6923C17.1757 19.65 18.1214 19.2402 18.7042 18.6282C19.2957 18.0072 19.6154 17.0715 19.6154 15.825V8.175C19.6154 6.92847 19.2957 5.99282 18.7042 5.3718C18.1214 4.75985 17.1757 4.35 15.6923 4.35H8.30769C6.82426 4.35 5.8786 4.75985 5.29578 5.3718ZM4.28114 4.4532C5.19833 3.49015 6.56035 3 8.30769 3H15.6923C17.4396 3 18.8017 3.49015 19.7189 4.4532C20.6274 5.40718 21 6.72153 21 8.175V15.825C21 17.2785 20.6274 18.5928 19.7189 19.5468C18.8017 20.5098 17.4396 21 15.6923 21H8.30769C6.56035 21 5.19833 20.5098 4.28114 19.5468C3.37259 18.5928 3 17.2785 3 15.825V8.175C3 6.72153 3.37259 5.40718 4.28114 4.4532Z" fill="#6B757E"/>
<path fill-rule="evenodd" clip-rule="evenodd" d="M7 12C7 11.4477 7.44571 11 7.99553 11H8.00447C8.55429 11 9 11.4477 9 12C9 12.5523 8.55429 13 8.00447 13H7.99553C7.44571 13 7 12.5523 7 12Z" fill="#6B757E"/>
<path fill-rule="evenodd" clip-rule="evenodd" d="M7 16C7 15.4477 7.44571 15 7.99553 15H8.00447C8.55429 15 9 15.4477 9 16C9 16.5523 8.55429 17 8.00447 17H7.99553C7.44571 17 7 16.5523 7 16Z" fill="#6B757E"/>
<path fill-rule="evenodd" clip-rule="evenodd" d="M11 12C11 11.4477 11.4457 11 11.9955 11H12.0045C12.5543 11 13 11.4477 13 12C13 12.5523 12.5543 13 12.0045 13H11.9955C11.4457 13 11 12.5523 11 12Z" fill="#6B757E"/>
<path fill-rule="evenodd" clip-rule="evenodd" d="M11 16C11 15.4477 11.4457 15 11.9955 15H12.0045C12.5543 15 13 15.4477 13 16C13 16.5523 12.5543 17 12.0045 17H11.9955C11.4457 17 11 16.5523 11 16Z" fill="#6B757E"/>
<path fill-rule="evenodd" clip-rule="evenodd" d="M15 12C15 11.4477 15.4457 11 15.9955 11H16.0045C16.5543 11 17 11.4477 17 12C17 12.5523 16.5543 13 16.0045 13H15.9955C15.4457 13 15 12.5523 15 12Z" fill="#6B757E"/>
</svg>
