<svg width="24" height="24" viewBox="0 0 24 24" fill="none" xmlns="http://www.w3.org/2000/svg">
<path fill-rule="evenodd" clip-rule="evenodd" d="M9.35022 3.50332C9.84275 3.20505 10.4361 3 11.0236 3H12.9849C13.5692 3 14.1606 3.20572 14.6514 3.5037C15.1425 3.80183 15.5918 4.22814 15.8536 4.73441L15.8557 4.73841L16.4695 5.94671C16.6026 6.19394 16.8644 6.34884 17.1389 6.34884C19.3669 6.34884 21.1358 8.18577 20.9918 10.3578L20.5465 17.272C20.4849 18.2265 20.1892 19.169 19.5105 19.8781C18.8194 20.6 17.8081 21 16.488 21H7.51197C6.19211 21 5.17885 20.6002 4.48671 19.8785C3.80675 19.1696 3.51062 18.2268 3.45338 17.2706C3.45335 17.2701 3.45332 17.2696 3.45329 17.2691L3.00817 10.3578C3.00816 10.3576 3.00819 10.358 3.00817 10.3578C2.86451 8.18603 4.63326 6.34884 6.86104 6.34884C7.13553 6.34884 7.39735 6.19395 7.53047 5.94673L8.14632 4.7344C8.40818 4.22802 8.85771 3.80158 9.35022 3.50332ZM9.29383 5.29917L8.6733 6.52071C8.32608 7.17527 7.62993 7.60465 6.86104 7.60465C5.37185 7.60465 4.19442 8.8319 4.29022 10.2766L4.2903 10.2778L4.73586 17.196C4.78161 17.964 5.01227 18.5904 5.42397 19.0196C5.82386 19.4366 6.46792 19.7442 7.51197 19.7442H16.488C17.5318 19.7442 18.1735 19.4367 18.5723 19.0201C18.9835 18.5905 19.2146 17.9633 19.2643 17.1931C19.2643 17.1931 19.2643 17.1931 19.2643 17.1931L19.7097 10.2766C19.8055 8.8319 18.6281 7.60465 17.1389 7.60465C16.37 7.60465 15.674 7.17522 15.3267 6.52066L15.3216 6.51093L14.7061 5.29918C14.5737 5.04411 14.3126 4.7763 13.9736 4.57048C13.6336 4.36405 13.2743 4.25581 12.9849 4.25581H11.0236C10.7289 4.25581 10.3672 4.36472 10.0268 4.57086C9.6872 4.77654 9.42624 5.04421 9.29383 5.29917Z" fill="#6B757E"/>
<path fill-rule="evenodd" clip-rule="evenodd" d="M10.0732 8.65086C10.0732 8.30407 10.3608 8.02295 10.7156 8.02295H13.2851C13.6399 8.02295 13.9275 8.30407 13.9275 8.65086C13.9275 8.99764 13.6399 9.27876 13.2851 9.27876H10.7156C10.3608 9.27876 10.0732 8.99764 10.0732 8.65086Z" fill="#6B757E"/>
<path fill-rule="evenodd" clip-rule="evenodd" d="M8.57422 14.3021C8.57422 12.4567 10.1123 10.9532 12.0002 10.9532C13.8881 10.9532 15.4261 12.4567 15.4261 14.3021C15.4261 16.1474 13.8881 17.6509 12.0002 17.6509C10.1123 17.6509 8.57422 16.1474 8.57422 14.3021ZM12.0002 12.209C10.8218 12.209 9.85895 13.1502 9.85895 14.3021C9.85895 15.4539 10.8218 16.3951 12.0002 16.3951C13.1785 16.3951 14.1414 15.4539 14.1414 14.3021C14.1414 13.1502 13.1785 12.209 12.0002 12.209Z" fill="#6B757E"/>
</svg>
