<svg width="24" height="24" viewBox="0 0 24 24" fill="none" xmlns="http://www.w3.org/2000/svg">
<path fill-rule="evenodd" clip-rule="evenodd" d="M8.95785 7.50108C9.27254 7.16626 9.73071 7 10.3673 7H13.6328C14.2694 7 14.7276 7.16626 15.0423 7.50108C15.3442 7.82238 15.4609 8.24667 15.5371 8.62336L15.5372 8.62393L16.0629 11.2412C16.0844 11.3482 16.0584 11.4595 15.9921 11.5443C15.9259 11.6291 15.8264 11.6783 15.7214 11.6783H8.27875C8.17371 11.6783 8.07426 11.6291 8.00801 11.5443C7.94176 11.4595 7.91577 11.3482 7.93724 11.2412L8.46299 8.62336C8.53924 8.24667 8.65587 7.82238 8.95785 7.50108ZM9.14577 8.77286C9.14575 8.77295 9.14579 8.77278 9.14577 8.77286L8.70802 10.9526H15.2921L14.8543 8.77286C14.8543 8.77275 14.8544 8.77298 14.8543 8.77286C14.7818 8.41438 14.696 8.17079 14.5433 8.00835C14.4033 7.85938 14.1544 7.72569 13.6328 7.72569H10.3673C9.8457 7.72569 9.59682 7.85938 9.45681 8.00835C9.30413 8.1708 9.21836 8.41433 9.14577 8.77286Z" fill="#6B757E"/>
<path fill-rule="evenodd" clip-rule="evenodd" d="M7.96087 12.6704C7.96087 12.6705 7.96088 12.6704 7.96087 12.6704L7.70043 15.6162L7.70036 15.617C7.66915 15.9622 7.93692 16.2748 8.2973 16.2748H9.17181C9.37643 16.2748 9.41639 16.2296 9.41716 16.2288C9.43371 16.2124 9.4507 16.1828 9.50137 16.0246L9.59441 15.7344C9.59685 15.7267 9.59935 15.7189 9.60191 15.7109C9.65416 15.5468 9.732 15.3024 9.92033 15.1177C10.1335 14.9086 10.4284 14.8235 10.8092 14.8235H13.1908C13.5618 14.8235 13.8564 14.8956 14.0717 15.1023C14.2584 15.2815 14.3379 15.5263 14.3942 15.6995C14.3979 15.7106 14.4014 15.7214 14.4048 15.7319L14.4056 15.7344L14.4986 16.0246C14.5493 16.1828 14.5663 16.2124 14.5828 16.2288C14.583 16.2289 14.6219 16.2748 14.8282 16.2748H15.7027C16.0631 16.2748 16.3309 15.9622 16.2997 15.617L16.0391 12.6704C16.0391 12.6703 16.0391 12.6701 16.0391 12.6699C16.0058 12.2993 15.9583 12.0803 15.8431 11.9382C15.7445 11.8166 15.5307 11.6788 14.9678 11.6788H9.03226C8.46931 11.6788 8.25556 11.8166 8.15696 11.9382C8.04169 12.0803 7.99416 12.2997 7.96087 12.6704ZM7.6236 11.4703C7.91342 11.1129 8.37648 10.9531 9.03226 10.9531H14.9678C15.6235 10.9531 16.0866 11.1129 16.3764 11.4703C16.6495 11.807 16.702 12.2483 16.7339 12.603L16.7339 12.6035L16.9943 15.5491C16.9943 15.5491 16.9943 15.549 16.9943 15.5491C17.0654 16.3358 16.4587 17.0005 15.7027 17.0005H14.8282C14.5322 17.0005 14.285 16.9352 14.1025 16.7551C13.9466 16.6012 13.8823 16.3981 13.8438 16.2766C13.8414 16.2687 13.839 16.2612 13.8367 16.2541L13.7441 15.9652C13.6713 15.7434 13.6417 15.6771 13.5984 15.6356C13.5719 15.61 13.4897 15.5492 13.1908 15.5492H10.8092C10.5202 15.5492 10.4313 15.614 10.3991 15.6456C10.3512 15.6925 10.3202 15.7645 10.2563 15.9639L10.1633 16.2541C10.161 16.2612 10.1587 16.2687 10.1562 16.2766C10.1177 16.3981 10.0534 16.6012 9.89748 16.7551C9.71502 16.9352 9.46785 17.0005 9.17181 17.0005H8.2973C7.54142 17.0005 6.93476 16.3362 7.00564 15.5495C7.00565 15.5493 7.00563 15.5496 7.00564 15.5495L7.26615 12.603C7.29798 12.2483 7.35049 11.807 7.6236 11.4703Z" fill="#6B757E"/>
<path fill-rule="evenodd" clip-rule="evenodd" d="M7.46472 9.8648C7.46472 9.6644 7.62092 9.50195 7.81359 9.50195H8.27876C8.47144 9.50195 8.62763 9.6644 8.62763 9.8648C8.62763 10.0652 8.47144 10.2276 8.27876 10.2276H7.81359C7.62092 10.2276 7.46472 10.0652 7.46472 9.8648Z" fill="#6B757E"/>
<path fill-rule="evenodd" clip-rule="evenodd" d="M15.3725 9.8648C15.3725 9.6644 15.5287 9.50195 15.7214 9.50195H16.1865C16.3792 9.50195 16.5354 9.6644 16.5354 9.8648C16.5354 10.0652 16.3792 10.2276 16.1865 10.2276H15.7214C15.5287 10.2276 15.3725 10.0652 15.3725 9.8648Z" fill="#6B757E"/>
<path fill-rule="evenodd" clip-rule="evenodd" d="M12.0001 7.08203C12.1927 7.08203 12.3489 7.24448 12.3489 7.44488V8.41246C12.3489 8.61286 12.1927 8.77531 12.0001 8.77531C11.8074 8.77531 11.6512 8.61286 11.6512 8.41246V7.44488C11.6512 7.24448 11.8074 7.08203 12.0001 7.08203Z" fill="#6B757E"/>
<path fill-rule="evenodd" clip-rule="evenodd" d="M10.9534 8.41265C10.9534 8.21226 11.1096 8.0498 11.3022 8.0498H12.6977C12.8904 8.0498 13.0466 8.21226 13.0466 8.41265C13.0466 8.61304 12.8904 8.77549 12.6977 8.77549H11.3022C11.1096 8.77549 10.9534 8.61304 10.9534 8.41265Z" fill="#6B757E"/>
<path fill-rule="evenodd" clip-rule="evenodd" d="M8.86011 13.2505C8.86011 13.0501 9.0163 12.8877 9.20898 12.8877H10.6045C10.7972 12.8877 10.9533 13.0501 10.9533 13.2505C10.9533 13.4509 10.7972 13.6134 10.6045 13.6134H9.20898C9.0163 13.6134 8.86011 13.4509 8.86011 13.2505Z" fill="#6B757E"/>
<path fill-rule="evenodd" clip-rule="evenodd" d="M13.0466 13.2505C13.0466 13.0501 13.2028 12.8877 13.3955 12.8877H14.791C14.9837 12.8877 15.1399 13.0501 15.1399 13.2505C15.1399 13.4509 14.9837 13.6134 14.791 13.6134H13.3955C13.2028 13.6134 13.0466 13.4509 13.0466 13.2505Z" fill="#6B757E"/>
<path fill-rule="evenodd" clip-rule="evenodd" d="M16.5225 7.47689L7.04387 16.9555L6.3208 16.2324L15.7994 6.75383L16.5225 7.47689Z" fill="white"/>
<path fill-rule="evenodd" clip-rule="evenodd" d="M18.3998 7.08253L5.75964 19.7227L5.10721 19.0703L17.7474 6.43011L18.3998 7.08253Z" fill="white"/>
<path fill-rule="evenodd" clip-rule="evenodd" d="M18.7175 5.98993L5.98958 18.7178L5.28247 18.0107L18.0104 5.28282L18.7175 5.98993Z" fill="#6B757E"/>
<circle cx="12" cy="12" r="9.25" stroke="#6B757E" stroke-width="1.5"/>
</svg>
