<svg width="24" height="24" viewBox="0 0 24 24" fill="none" xmlns="http://www.w3.org/2000/svg">
<path fill-rule="evenodd" clip-rule="evenodd" d="M12 3.39535C7.25043 3.39535 3.39535 7.25043 3.39535 12C3.39535 16.7496 7.25043 20.6047 12 20.6047C16.7496 20.6047 20.6047 16.7496 20.6047 12C20.6047 7.25043 16.7496 3.39535 12 3.39535ZM2 12C2 6.4798 6.4798 2 12 2C17.5202 2 22 6.4798 22 12C22 17.5202 17.5202 22 12 22C6.4798 22 2 17.5202 2 12Z" fill="#6B757E"/>
<path fill-rule="evenodd" clip-rule="evenodd" d="M11.6558 7.125C12.0411 7.125 12.3535 7.43736 12.3535 7.82267V11.6366C12.3535 11.7795 12.408 11.9865 12.5293 12.1991C12.6506 12.4119 12.8009 12.564 12.9231 12.6364L12.925 12.6375L12.925 12.6375L15.8087 14.3585C16.1396 14.5559 16.2477 14.9842 16.0503 15.3151C15.8528 15.646 15.4245 15.7541 15.0936 15.5567L12.2118 13.8368C12.2114 13.8366 12.2111 13.8364 12.2108 13.8363C11.8311 13.611 11.5259 13.2564 11.3172 12.8904C11.1082 12.524 10.9581 12.0798 10.9581 11.6366V7.82267C10.9581 7.43736 11.2705 7.125 11.6558 7.125Z" fill="#6B757E"/>
</svg>
