<svg width="24" height="24" viewBox="0 0 24 24" fill="none" xmlns="http://www.w3.org/2000/svg">
<path fill-rule="evenodd" clip-rule="evenodd" d="M17.6318 6.36816C18.1227 6.85904 18.1227 7.65492 17.6318 8.1458L8.1458 17.6318C7.65492 18.1227 6.85904 18.1227 6.36816 17.6318C5.87728 17.141 5.87728 16.3451 6.36816 15.8542L15.8542 6.36816C16.3451 5.87728 17.141 5.87728 17.6318 6.36816Z" fill="#6B757E"/>
<path fill-rule="evenodd" clip-rule="evenodd" d="M6.36816 6.36816C6.85904 5.87728 7.65492 5.87728 8.1458 6.36816L17.6318 15.8542C18.1227 16.3451 18.1227 17.141 17.6318 17.6318C17.141 18.1227 16.3451 18.1227 15.8542 17.6318L6.36816 8.1458C5.87728 7.65492 5.87728 6.85904 6.36816 6.36816Z" fill="#6B757E"/>
</svg>
