<svg width="24" height="24" viewBox="0 0 24 24" fill="none" xmlns="http://www.w3.org/2000/svg">
<path fill-rule="evenodd" clip-rule="evenodd" d="M5.02423 10.0477C4.5403 10.5316 4.25581 11.3505 4.25581 12.7537V16.2699C4.25581 17.6731 4.5403 18.492 5.02423 18.976C5.50816 19.4599 6.32705 19.7444 7.73023 19.7444H11.2465C12.6497 19.7444 13.4686 19.4599 13.9525 18.976C14.4364 18.492 14.7209 17.6731 14.7209 16.2699V12.7537C14.7209 11.3505 14.4364 10.5316 13.9525 10.0477C13.4686 9.56373 12.6497 9.27925 11.2465 9.27925H7.73023C6.32705 9.27925 5.50816 9.56373 5.02423 10.0477ZM4.13624 9.15967C4.97091 8.325 6.20319 8.02344 7.73023 8.02344H11.2465C12.7736 8.02344 14.0058 8.325 14.8405 9.15967C15.6752 9.99434 15.9767 11.2266 15.9767 12.7537V16.2699C15.9767 17.797 15.6752 19.0293 14.8405 19.8639C14.0058 20.6986 12.7736 21.0002 11.2465 21.0002H7.73023C6.20319 21.0002 4.97091 20.6986 4.13624 19.8639C3.30156 19.0293 3 17.797 3 16.2699V12.7537C3 11.2266 3.30156 9.99434 4.13624 9.15967Z" fill="#6B757E"/>
<path fill-rule="evenodd" clip-rule="evenodd" d="M10.0475 5.02423C9.56355 5.50816 9.27907 6.32705 9.27907 7.73023V8.02326H11.2465C12.7736 8.02326 14.0058 8.32482 14.8405 9.15949C15.6752 9.99416 15.9767 11.2264 15.9767 12.7535V14.7209H16.2698C17.673 14.7209 18.4918 14.4364 18.9758 13.9525C19.4597 13.4686 19.7442 12.6497 19.7442 11.2465V7.73023C19.7442 6.32705 19.4597 5.50816 18.9758 5.02423C18.4918 4.5403 17.673 4.25581 16.2698 4.25581H12.7535C11.3503 4.25581 10.5314 4.5403 10.0475 5.02423ZM9.15949 4.13624C9.99416 3.30156 11.2264 3 12.7535 3H16.2698C17.7968 3 19.0291 3.30156 19.8638 4.13624C20.6984 4.97091 21 6.20319 21 7.73023V11.2465C21 12.7736 20.6984 14.0058 19.8638 14.8405C19.0291 15.6752 17.7968 15.9767 16.2698 15.9767H15.3488C15.0021 15.9767 14.7209 15.6956 14.7209 15.3488V12.7535C14.7209 11.3503 14.4364 10.5314 13.9525 10.0475C13.4686 9.56355 12.6497 9.27907 11.2465 9.27907H8.65116C8.30438 9.27907 8.02325 8.99795 8.02325 8.65116V7.73023C8.02325 6.20319 8.32482 4.97091 9.15949 4.13624Z" fill="#6B757E"/>
</svg>
