<svg width="24" height="24" viewBox="0 0 24 24" fill="none" xmlns="http://www.w3.org/2000/svg">
<path fill-rule="evenodd" clip-rule="evenodd" d="M4.52652 4.73453C5.63083 3.63021 7.28332 3.20801 9.41336 3.20801H11.0684C11.4112 3.20801 11.6891 3.48588 11.6891 3.82866C11.6891 4.17143 11.4112 4.4493 11.0684 4.4493H9.41336C7.40575 4.4493 6.16188 4.85463 5.40425 5.61226C4.64662 6.36989 4.2413 7.61376 4.2413 9.62137V14.5866C4.2413 16.5942 4.64662 17.838 5.40425 18.5957C6.16188 19.3533 7.40575 19.7586 9.41336 19.7586H14.3785C16.3862 19.7586 17.63 19.3533 18.3877 18.5957C19.1453 17.838 19.5506 16.5942 19.5506 14.5866V12.9315C19.5506 12.5887 19.8285 12.3108 20.1713 12.3108C20.514 12.3108 20.7919 12.5887 20.7919 12.9315V14.5866C20.7919 16.7166 20.3697 18.3691 19.2654 19.4734C18.1611 20.5777 16.5086 20.9999 14.3785 20.9999H9.41336C7.28332 20.9999 5.63083 20.5777 4.52652 19.4734C3.42221 18.3691 3 16.7166 3 14.5866V9.62137C3 7.49133 3.42221 5.83884 4.52652 4.73453Z" fill="#6B757E"/>
<path fill-rule="evenodd" clip-rule="evenodd" d="M17.0239 3.01239C17.9453 2.92195 18.8587 3.32656 19.766 4.23389C20.6734 5.14122 21.078 6.05466 20.9875 6.97599C20.9003 7.86477 20.3643 8.60137 19.766 9.19962L13.2379 15.7278C13.0515 15.9081 12.8079 16.0657 12.5729 16.1838C12.3392 16.3012 12.064 16.4048 11.8017 16.4423L9.30763 16.7986C8.69353 16.8831 8.10596 16.7154 7.69373 16.3049C7.28062 15.8934 7.11164 15.3056 7.20196 14.688C7.20202 14.6876 7.20208 14.6872 7.20214 14.6868L7.55735 12.2003C7.55741 12.1999 7.55746 12.1995 7.55751 12.1992C7.59478 11.9333 7.69783 11.6561 7.81611 11.4208C7.93465 11.185 8.09425 10.9399 8.27935 10.7548L14.8003 4.23389C15.3985 3.63564 16.1351 3.09963 17.0239 3.01239ZM17.1452 4.24774C16.6851 4.29291 16.2052 4.58442 15.678 5.11162L9.15708 11.6326C9.09393 11.6957 9.00527 11.8189 8.9252 11.9782C8.84504 12.1377 8.79925 12.2821 8.78674 12.3718L8.78646 12.3738L8.43062 14.8647L8.43028 14.867C8.3886 15.151 8.47207 15.3281 8.56968 15.4253C8.66828 15.5236 8.84987 15.6082 9.13692 15.5691C9.13741 15.569 9.13791 15.5689 9.1384 15.5688L11.6261 15.2135C11.7113 15.2013 11.854 15.1559 12.0155 15.0747C12.1733 14.9954 12.3008 14.9062 12.3716 14.8386L18.8883 8.32189C19.4155 7.79469 19.707 7.31483 19.7522 6.85473C19.7941 6.42719 19.636 5.85935 18.8883 5.11162C18.1406 4.36389 17.5727 4.20578 17.1452 4.24774Z" fill="#6B757E"/>
<path fill-rule="evenodd" clip-rule="evenodd" d="M14.1365 5.0105C14.4666 4.91798 14.8091 5.11053 14.9016 5.44058C15.3974 7.20911 16.7817 8.59478 18.5612 9.09897C18.891 9.19241 19.0826 9.53551 18.9892 9.8653C18.8957 10.1951 18.5526 10.3867 18.2228 10.2933C16.0302 9.672 14.3195 7.96271 13.7064 5.77564C13.6139 5.44559 13.8065 5.10303 14.1365 5.0105Z" fill="#6B757E"/>
</svg>
