<svg width="24" height="24" viewBox="0 0 24 24" fill="none" xmlns="http://www.w3.org/2000/svg">
<path d="M20.9499 17.0465H20.7749V15.7761C20.7749 15.1959 20.5444 14.6394 20.1342 14.2291C19.7239 13.8189 19.1674 13.5884 18.5872 13.5884C18.007 13.5884 17.4506 13.8189 17.0403 14.2291C16.63 14.6394 16.3995 15.1959 16.3995 15.7761V17.0465H16.2245C15.9395 17.0469 15.6663 17.1603 15.4648 17.3619C15.2632 17.5634 15.1498 17.8366 15.1494 18.1216V20.0562C15.1498 20.584 15.3597 21.0902 15.733 21.4634C16.1062 21.8367 16.6124 22.0466 17.1402 22.047H20.0342C20.5621 22.0466 21.0682 21.8367 21.4415 21.4634C21.8148 21.0902 22.0246 20.584 22.025 20.0562V18.1216C22.0246 17.8366 21.9112 17.5634 21.7097 17.3619C21.5082 17.1603 21.235 17.0469 20.9499 17.0465ZM17.0246 15.7761C17.0246 15.3616 17.1892 14.9642 17.4823 14.6711C17.7753 14.3781 18.1728 14.2134 18.5872 14.2134C19.0017 14.2134 19.3991 14.3781 19.6922 14.6711C19.9852 14.9642 20.1499 15.3616 20.1499 15.7761V17.0465H17.0246V15.7761ZM21.4 20.0562C21.3996 20.4183 21.2556 20.7654 20.9995 21.0214C20.7435 21.2775 20.3963 21.4215 20.0342 21.4219H17.1402C16.7781 21.4215 16.431 21.2775 16.1749 21.0214C15.9189 20.7654 15.7749 20.4183 15.7745 20.0562V18.1216C15.7745 18.0023 15.8219 17.8878 15.9063 17.8034C15.9907 17.719 16.1052 17.6716 16.2245 17.6716H20.9499C21.0693 17.6716 21.1838 17.719 21.2682 17.8034C21.3526 17.8878 21.4 18.0023 21.4 18.1216V20.0562Z" fill="#485058"/>
<path d="M18.5873 18.1528C18.3791 18.1525 18.1775 18.2253 18.0176 18.3585C17.8577 18.4917 17.7497 18.6769 17.7124 18.8816C17.6752 19.0864 17.7111 19.2978 17.8139 19.4787C17.9167 19.6597 18.0798 19.7988 18.2747 19.8717V20.4843C18.2747 20.5672 18.3077 20.6467 18.3663 20.7053C18.4249 20.7639 18.5044 20.7968 18.5873 20.7968C18.6702 20.7968 18.7497 20.7639 18.8083 20.7053C18.8669 20.6467 18.8998 20.5672 18.8998 20.4843V19.8717C19.0947 19.7988 19.2579 19.6597 19.3606 19.4787C19.4634 19.2978 19.4993 19.0864 19.4621 18.8816C19.4249 18.6769 19.3169 18.4917 19.157 18.3585C18.997 18.2253 18.7954 18.1525 18.5873 18.1528ZM18.5873 18.7779C18.6395 18.7779 18.6906 18.7934 18.734 18.8224C18.7774 18.8514 18.8113 18.8927 18.8313 18.9409C18.8512 18.9892 18.8565 19.0423 18.8463 19.0935C18.8361 19.1447 18.8109 19.1918 18.774 19.2287C18.7371 19.2656 18.69 19.2908 18.6388 19.301C18.5876 19.3112 18.5345 19.306 18.4862 19.286C18.438 19.266 18.3967 19.2321 18.3677 19.1887C18.3387 19.1453 18.3232 19.0942 18.3232 19.042C18.3232 18.9719 18.351 18.9048 18.4005 18.8552C18.4501 18.8057 18.5172 18.7779 18.5873 18.7779Z" fill="#485058"/>
<path d="M11.0866 12.5741C11.9341 12.5747 12.7688 12.7811 13.5189 13.1755C14.2691 13.5699 14.9123 14.1406 15.3932 14.8384C15.4158 14.8739 15.4452 14.9044 15.4799 14.9283C15.5145 14.9521 15.5536 14.9687 15.5948 14.9771C15.636 14.9854 15.6784 14.9854 15.7196 14.977C15.7608 14.9686 15.7999 14.9519 15.8345 14.928C15.8691 14.9042 15.8985 14.8735 15.921 14.838C15.9435 14.8025 15.9586 14.7628 15.9654 14.7213C15.9722 14.6799 15.9706 14.6374 15.9606 14.5966C15.9506 14.5558 15.9325 14.5173 15.9073 14.4837C15.1332 13.3618 13.9921 12.545 12.6805 12.1741C13.3441 11.8185 13.87 11.2515 14.1746 10.563C14.4792 9.87443 14.5451 9.10388 14.3618 8.37364C14.1785 7.64339 13.7565 6.9953 13.1629 6.53223C12.5692 6.06917 11.8379 5.81768 11.085 5.81768C10.3321 5.81768 9.60078 6.06917 9.00712 6.53223C8.41346 6.9953 7.9915 7.64339 7.80821 8.37364C7.62491 9.10388 7.6908 9.87443 7.99541 10.563C8.30001 11.2515 8.82588 11.8185 9.48954 12.1741C8.36411 12.4951 7.36048 13.1456 6.60776 14.0417C5.85504 14.9379 5.38764 16.0387 5.26571 17.2027C4.25435 16.239 3.49804 15.0394 3.06466 13.7114C2.63127 12.3834 2.53436 10.9686 2.78262 9.59386C3.03088 8.21915 3.61655 6.92759 4.48707 5.83506C5.3576 4.74253 6.48574 3.88321 7.77027 3.3342C9.05481 2.78519 10.4555 2.56368 11.8468 2.68953C13.2381 2.81539 14.5763 3.28467 15.7415 4.05528C16.9066 4.82589 17.8622 5.87371 18.5226 7.10472C19.1829 8.33574 19.5273 9.71143 19.5248 11.1084C19.525 11.6815 19.4674 12.2532 19.3529 12.8148C19.3419 12.8559 19.3393 12.8989 19.3454 12.941C19.3515 12.9832 19.3662 13.0236 19.3885 13.0599C19.4108 13.0962 19.4403 13.1275 19.4752 13.152C19.5101 13.1764 19.5496 13.1935 19.5913 13.2022C19.633 13.2108 19.6761 13.2108 19.7178 13.2022C19.7595 13.1936 19.799 13.1766 19.8339 13.1522C19.8688 13.1278 19.8983 13.0964 19.9207 13.0602C19.9431 13.0239 19.9578 12.9835 19.9639 12.9413C20.3709 10.9688 20.1092 8.91695 19.2202 7.10971C18.3312 5.30246 16.8655 3.84282 15.0546 2.96124C13.2438 2.07966 11.1908 1.82637 9.22001 2.24137C7.24917 2.65637 5.4727 3.71601 4.1711 5.25298C2.8695 6.78995 2.11692 8.71668 2.0322 10.729C1.94747 12.7412 2.53542 14.7244 3.70322 16.3653C4.87102 18.0063 6.55213 19.2115 8.48111 19.7907C10.4101 20.3699 12.477 20.2901 14.3556 19.5638C14.4306 19.5324 14.4903 19.4729 14.5222 19.3981C14.554 19.3233 14.5555 19.239 14.5262 19.1631C14.4969 19.0873 14.4392 19.0258 14.3653 18.9918C14.2915 18.9578 14.2073 18.9539 14.1306 18.981C12.7626 19.5089 11.2807 19.6713 9.83088 19.4521C8.38105 19.2328 7.01337 18.6396 5.86264 17.7309C5.88233 16.3577 6.44114 15.0473 7.41847 14.0826C8.39579 13.1178 9.71327 12.576 11.0866 12.5741ZM8.33318 9.19569C8.33318 8.65112 8.49466 8.11879 8.79721 7.66599C9.09975 7.2132 9.52977 6.8603 10.0329 6.6519C10.536 6.4435 11.0896 6.38898 11.6237 6.49522C12.1578 6.60146 12.6484 6.86369 13.0335 7.24876C13.4186 7.63382 13.6808 8.12443 13.787 8.65853C13.8933 9.19264 13.8387 9.74625 13.6304 10.2494C13.422 10.7525 13.069 11.1825 12.6163 11.485C12.1635 11.7876 11.6311 11.9491 11.0866 11.9491C10.3566 11.9482 9.65672 11.6579 9.14054 11.1417C8.62436 10.6255 8.33401 9.92568 8.33318 9.19569Z" fill="#485058"/>
</svg>
