<svg width="24" height="24" viewBox="0 0 24 24" fill="none" xmlns="http://www.w3.org/2000/svg">
<path fill-rule="evenodd" clip-rule="evenodd" d="M20.1464 3.85383C20.3916 4.09904 20.3916 4.49661 20.1464 4.74183L13.2813 11.6069C13.036 11.8522 12.6385 11.8522 12.3933 11.6069C12.148 11.3617 12.148 10.9642 12.3933 10.7189L19.2584 3.85383C19.5036 3.60862 19.9012 3.60862 20.1464 3.85383Z" fill="#6B757E"/>
<path fill-rule="evenodd" clip-rule="evenodd" d="M15.7256 3.62791C15.7256 3.28112 16.0067 3 16.3535 3H20.3721C20.7189 3 21 3.28112 21 3.62791V7.64651C21 7.9933 20.7189 8.27442 20.3721 8.27442C20.0253 8.27442 19.7442 7.9933 19.7442 7.64651V4.25581H16.3535C16.0067 4.25581 15.7256 3.97469 15.7256 3.62791Z" fill="#6B757E"/>
<path fill-rule="evenodd" clip-rule="evenodd" d="M4.54437 4.54437C5.6616 3.42715 7.33342 3 9.48837 3H11.1628C11.5096 3 11.7907 3.28112 11.7907 3.62791C11.7907 3.97469 11.5096 4.25581 11.1628 4.25581H9.48837C7.45728 4.25581 6.19886 4.66588 5.43237 5.43237C4.66588 6.19886 4.25581 7.45728 4.25581 9.48837V14.5116C4.25581 16.5427 4.66588 17.8011 5.43237 18.5676C6.19886 19.3341 7.45728 19.7442 9.48837 19.7442H14.5116C16.5427 19.7442 17.8011 19.3341 18.5676 18.5676C19.3341 17.8011 19.7442 16.5427 19.7442 14.5116V12.8372C19.7442 12.4904 20.0253 12.2093 20.3721 12.2093C20.7189 12.2093 21 12.4904 21 12.8372V14.5116C21 16.6666 20.5729 18.3384 19.4556 19.4556C18.3384 20.5729 16.6666 21 14.5116 21H9.48837C7.33342 21 5.6616 20.5729 4.54437 19.4556C3.42715 18.3384 3 16.6666 3 14.5116V9.48837C3 7.33342 3.42715 5.6616 4.54437 4.54437Z" fill="#6B757E"/>
</svg>
