<svg width="24" height="24" viewBox="0 0 24 24" fill="none" xmlns="http://www.w3.org/2000/svg">
<path fill-rule="evenodd" clip-rule="evenodd" d="M12 9.4652C10.5971 9.4652 9.46459 10.5977 9.46459 12.0006C9.46459 12.4216 9.56626 12.8166 9.74771 13.165L13.1644 9.74832C12.8159 9.56687 12.421 9.4652 12 9.4652ZM7.92615 12.0006C7.92615 9.74808 9.74746 7.92676 12 7.92676C13.127 7.92676 14.1416 8.38362 14.8793 9.12129C15.1797 9.42169 15.1797 9.90874 14.8793 10.2091L10.2085 14.8799C9.90813 15.1803 9.42108 15.1803 9.12068 14.8799C8.38301 14.1422 7.92615 13.1276 7.92615 12.0006Z" fill="#6B757E"/>
<path fill-rule="evenodd" clip-rule="evenodd" d="M2.94207 9.1966C5.15942 5.71109 8.41543 3.59766 12 3.59766C14.095 3.59766 16.101 4.32751 17.8356 5.63585C18.1747 5.89167 18.2423 6.37401 17.9864 6.71317C17.7306 7.05234 17.2483 7.1199 16.9091 6.86407C15.4129 5.73548 13.7266 5.1361 12 5.1361C9.06786 5.1361 6.25016 6.86247 4.23983 10.0228L4.23918 10.0238C3.92166 10.5213 3.73693 11.24 3.73693 12.0053C3.73693 12.7707 3.92166 13.4894 4.23918 13.9869L4.23954 13.9874C4.93161 15.0737 5.73243 16.0028 6.59389 16.7437C6.91599 17.0207 6.95255 17.5064 6.67554 17.8285C6.39854 18.1506 5.91286 18.1871 5.59076 17.9101C4.60607 17.0633 3.70843 16.017 2.94204 14.8141C2.42904 14.01 2.19849 12.9843 2.19849 12.0053C2.19849 11.0263 2.42905 10.0006 2.94207 9.1966Z" fill="#6B757E"/>
<path fill-rule="evenodd" clip-rule="evenodd" d="M18.9487 7.64349C19.2797 7.37723 19.7639 7.42973 20.0302 7.76077C20.386 8.20309 20.7358 8.67884 21.0587 9.18764C21.5712 9.99147 21.8015 11.0167 21.8015 11.9952C21.8015 12.9742 21.571 13.9999 21.058 14.8039C18.8406 18.2895 15.5846 20.4029 12 20.4029C10.7554 20.4029 9.53726 20.1397 8.39688 19.6595C8.00535 19.4947 7.82159 19.0436 7.98644 18.6521C8.1513 18.2605 8.60235 18.0768 8.99389 18.2416C9.95813 18.6476 10.9739 18.8644 12 18.8644C14.9322 18.8644 17.7499 17.1381 19.7602 13.9777L19.7608 13.9767C20.0784 13.4793 20.2631 12.7606 20.2631 11.9952C20.2631 11.2298 20.0784 10.5111 19.7608 10.0137L19.7598 10.012C19.4734 9.56078 19.1587 9.13191 18.8314 8.725C18.5651 8.39397 18.6176 7.90976 18.9487 7.64349Z" fill="#6B757E"/>
<path fill-rule="evenodd" clip-rule="evenodd" d="M15.3795 11.8898C15.7973 11.9669 16.0735 12.368 15.9965 12.7858C15.6986 14.401 14.3916 15.708 12.7764 16.0059C12.3586 16.0829 11.9575 15.8067 11.8804 15.3889C11.8034 14.9711 12.0796 14.57 12.4974 14.4929C13.4853 14.3108 14.3014 13.4947 14.4835 12.5068C14.5606 12.089 14.9617 11.8128 15.3795 11.8898Z" fill="#6B757E"/>
<path fill-rule="evenodd" clip-rule="evenodd" d="M10.2085 13.7917C10.5089 14.0921 10.5089 14.5792 10.2085 14.8796L3.31315 21.7749C3.01275 22.0753 2.5257 22.0753 2.2253 21.7749C1.9249 21.4745 1.9249 20.9875 2.2253 20.6871L9.12069 13.7917C9.42109 13.4913 9.90814 13.4913 10.2085 13.7917Z" fill="#6B757E"/>
<path fill-rule="evenodd" clip-rule="evenodd" d="M21.7746 2.2253C22.075 2.5257 22.075 3.01275 21.7746 3.31315L14.8792 10.2085C14.5788 10.5089 14.0918 10.5089 13.7914 10.2085C13.491 9.90814 13.491 9.42109 13.7914 9.12069L20.6868 2.2253C20.9872 1.9249 21.4742 1.9249 21.7746 2.2253Z" fill="#6B757E"/>
</svg>
