<svg width="24" height="24" viewBox="0 0 24 24" fill="none" xmlns="http://www.w3.org/2000/svg">
<path fill-rule="evenodd" clip-rule="evenodd" d="M6.49419 3.39608C5.88886 3.39608 5.35064 3.90825 5.35064 4.67116V6.83044C5.35064 6.98204 5.40445 7.23278 5.52895 7.51965C5.65093 7.80069 5.81322 8.05256 5.9722 8.21689L5.98416 8.22957L9.44181 11.9897C9.45317 12.002 9.46408 12.0148 9.47453 12.028C9.71111 12.3262 9.92596 12.7195 10.0826 13.125C10.2381 13.5275 10.357 13.9955 10.357 14.4437V19.4231C10.357 20.3439 11.379 20.9144 12.1399 20.4333L13.4034 19.5905C13.7167 19.3814 14.1347 19.4745 14.337 19.7984C14.5392 20.1223 14.4491 20.5544 14.1358 20.7635L12.8662 21.6104L12.8552 21.6176C11.2575 22.6387 9.00635 21.5159 9.00635 19.4231V14.4437C9.00635 14.2312 8.94514 13.9452 8.82828 13.6427C8.71663 13.3537 8.57324 13.0989 8.44421 12.9312L5.01067 9.19734C4.71336 8.8879 4.46829 8.48658 4.29664 8.09108C4.12626 7.69852 4 7.24657 4 6.83044V4.67116C4 3.18173 5.10058 2 6.49419 2H18.5058C19.8782 2 21 3.15945 21 4.57808V6.64428C21 7.15386 20.8488 7.67885 20.6531 8.12198C20.4566 8.56702 20.1871 8.9929 19.8928 9.29715C19.629 9.56975 19.2015 9.56975 18.9377 9.29715C18.674 9.02455 18.674 8.58257 18.9377 8.30997C19.0936 8.14886 19.2788 7.87204 19.4245 7.54226C19.5709 7.21056 19.6494 6.88858 19.6494 6.64428V4.57808C19.6494 3.93052 19.1323 3.39608 18.5058 3.39608H6.49419Z" fill="#6B757E"/>
<path fill-rule="evenodd" clip-rule="evenodd" d="M17.9056 10.6711C18.5027 10.6076 19.0522 10.8849 19.5416 11.3907C20.0338 11.8994 20.3052 12.4686 20.246 13.0874C20.1903 13.6692 19.8546 14.1206 19.5416 14.4441L16.361 17.7318C16.229 17.8748 16.0666 17.9787 15.9332 18.0476C15.7929 18.1202 15.6223 18.186 15.4507 18.214L15.4395 18.2158L14.2253 18.3923C14.225 18.3924 14.2255 18.3923 14.2253 18.3923C13.8277 18.4508 13.4172 18.3428 13.121 18.0367C12.8248 17.7305 12.7202 17.307 12.7768 16.896C12.7769 16.8958 12.7768 16.8963 12.7768 16.896L12.9494 15.6286C12.9769 15.4483 13.042 15.2731 13.1119 15.1304C13.1817 14.9876 13.281 14.8272 13.4091 14.6948L16.5967 11.4C16.5967 11.4 16.5967 11.4 16.5967 11.4C16.9097 11.0765 17.3454 10.7305 17.9056 10.6711ZM18.0436 12.0598C17.9465 12.0701 17.7879 12.143 17.5517 12.3872L14.3654 15.6807C14.3649 15.6813 14.3599 15.6872 14.3515 15.6998C14.3408 15.7158 14.3287 15.7367 14.3171 15.7606C14.3054 15.7844 14.2963 15.8069 14.29 15.8254C14.2861 15.8369 14.2843 15.8442 14.2836 15.847L14.127 16.9968L15.24 16.8349C15.2429 16.8342 15.2511 16.832 15.2645 16.8273C15.2837 16.8205 15.3063 16.8108 15.3293 16.7989C15.3524 16.7869 15.3708 16.7754 15.383 16.7666C15.3859 16.7646 15.388 16.7629 15.3895 16.7618C15.3927 16.7584 15.3959 16.755 15.3991 16.7517L18.5866 13.4569C18.8228 13.2127 18.8924 13.0498 18.9019 12.9499C18.908 12.8869 18.9048 12.7068 18.5866 12.3779C18.2746 12.0554 18.1037 12.0534 18.0436 12.0598Z" fill="#6B757E"/>
<path fill-rule="evenodd" clip-rule="evenodd" d="M16.4432 11.6868C16.8026 11.5836 17.1748 11.8011 17.2747 12.1725C17.4814 12.9418 18.0594 13.5393 18.8036 13.7529C19.163 13.8561 19.3734 14.2409 19.2736 14.6123C19.1737 14.9838 18.8015 15.2013 18.4421 15.0981C17.2415 14.7534 16.3068 13.7873 15.9733 12.5462C15.8735 12.1747 16.0839 11.79 16.4432 11.6868Z" fill="#6B757E"/>
</svg>
