<svg width="16" height="16" viewBox="0 0 16 16" fill="none" xmlns="http://www.w3.org/2000/svg">
<path fill-rule="evenodd" clip-rule="evenodd" d="M6.5 1.37805C3.67122 1.37805 1.37805 3.67122 1.37805 6.5C1.37805 9.32878 3.67122 11.622 6.5 11.622C9.32878 11.622 11.622 9.32878 11.622 6.5C11.622 3.67122 9.32878 1.37805 6.5 1.37805ZM0.5 6.5C0.5 3.18629 3.18629 0.5 6.5 0.5C9.81371 0.5 12.5 3.18629 12.5 6.5C12.5 9.81371 9.81371 12.5 6.5 12.5C3.18629 12.5 0.5 9.81371 0.5 6.5Z" fill="#6B757E"/>
<path fill-rule="evenodd" clip-rule="evenodd" d="M11.0002 11.0009C11.2045 10.7966 11.5358 10.7966 11.7402 11.0009L15.3469 14.6076C15.5513 14.8119 15.5513 15.1432 15.3469 15.3476C15.1426 15.5519 14.8113 15.5519 14.6069 15.3476L11.0002 11.7409C10.7958 11.5366 10.7958 11.2053 11.0002 11.0009Z" fill="#6B757E"/>
</svg>
