<svg width="24" height="24" viewBox="0 0 24 24" fill="none" xmlns="http://www.w3.org/2000/svg">
<path fill-rule="evenodd" clip-rule="evenodd" d="M17.5192 3.39516C16.5709 3.39516 15.8129 4.15362 15.8129 5.09726C15.8129 6.00582 16.5132 6.7399 17.402 6.79734C17.4764 6.79073 17.5526 6.79073 17.627 6.79734C18.5143 6.73996 19.2177 6.00685 19.2255 5.0948C19.2242 4.15982 18.4649 3.39516 17.5192 3.39516ZM14.4177 5.09726C14.4177 3.38079 15.8027 2 17.5192 2C19.2374 2 20.6207 3.39185 20.6207 5.09726V5.10225L20.6206 5.10225C20.6087 6.77654 19.2887 8.13401 17.6283 8.19406C17.5903 8.19544 17.5522 8.1937 17.5145 8.18888C17.4768 8.1937 17.4388 8.19544 17.4008 8.19406C15.7412 8.13404 14.4177 6.77631 14.4177 5.09726Z" fill="#6B757E"/>
<path fill-rule="evenodd" clip-rule="evenodd" d="M16.4953 9.06972C17.9113 8.82209 19.5258 9.05817 20.6997 9.83568L20.7009 9.83651C21.5031 10.3704 21.9973 11.1443 21.9973 12.0077C21.9973 12.8711 21.5031 13.6451 20.7009 14.179C19.5358 14.9574 17.9405 15.1926 16.5281 14.9559C16.1481 14.8922 15.8917 14.5326 15.9554 14.1526C16.0191 13.7726 16.3787 13.5162 16.7587 13.5799C17.8987 13.771 19.1166 13.56 19.9267 13.0183L19.9279 13.0175C20.4395 12.6771 20.6022 12.2977 20.6022 12.0077C20.6022 11.7179 20.4396 11.3387 19.9285 10.9984C19.1084 10.4555 17.8722 10.2452 16.7356 10.444C16.3561 10.5104 15.9946 10.2565 15.9283 9.87703C15.8619 9.49753 16.1158 9.13608 16.4953 9.06972Z" fill="#6B757E"/>
<path fill-rule="evenodd" clip-rule="evenodd" d="M3.37665 5.09726C3.37665 3.39185 4.75986 2 6.47811 2C8.19461 2 9.57958 3.38079 9.57958 5.09726C9.57958 6.77631 8.25606 8.13404 6.5965 8.19406C6.5585 8.19544 6.52046 8.1937 6.48277 8.18888C6.44508 8.1937 6.40705 8.19544 6.36904 8.19406C4.70861 8.13401 3.38865 6.77654 3.37667 5.10225L3.37665 5.09726ZM4.77181 5.09477C4.77961 6.00683 5.483 6.73996 6.37029 6.79734C6.44468 6.79073 6.52087 6.79073 6.59527 6.79734C7.48409 6.7399 8.18442 6.00582 8.18442 5.09726C8.18442 4.15362 7.42639 3.39516 6.47811 3.39516C5.53244 3.39516 4.77316 4.1598 4.77181 5.09477Z" fill="#6B757E"/>
<path fill-rule="evenodd" clip-rule="evenodd" d="M4.06876 10.9984C4.88888 10.4555 6.12506 10.2452 7.26173 10.444C7.64123 10.5104 8.00268 10.2565 8.06905 9.87703C8.13541 9.49753 7.88156 9.13608 7.50206 9.06972C6.08606 8.82209 4.47147 9.05817 3.29767 9.83568L3.29767 9.83568L3.29641 9.83652C2.49421 10.3704 2 11.1443 2 12.0077C2 12.8709 2.49395 13.6447 3.29578 14.1785C4.46094 14.9573 6.05654 15.1926 7.46924 14.9559C7.84921 14.8922 8.10561 14.5326 8.04193 14.1526C7.97825 13.7726 7.61861 13.5162 7.23864 13.5799C6.09863 13.771 4.88071 13.56 4.07063 13.0183L4.06937 13.0175C3.55783 12.6771 3.39516 12.2977 3.39516 12.0077C3.39516 11.7179 3.5577 11.3387 4.06876 10.9984Z" fill="#6B757E"/>
<path fill-rule="evenodd" clip-rule="evenodd" d="M11.9288 10.3434C10.9805 10.3434 10.2225 11.1019 10.2225 12.0455C10.2225 12.9541 10.9228 13.6881 11.8116 13.7456C11.887 13.7389 11.9643 13.739 12.0397 13.7459C12.9198 13.6956 13.6272 12.96 13.6351 12.043C13.6337 11.1081 12.8745 10.3434 11.9288 10.3434ZM8.8273 12.0455C8.8273 10.329 10.2123 8.94824 11.9288 8.94824C13.647 8.94824 15.0302 10.3401 15.0302 12.0455V12.0505L15.0302 12.0505C15.0183 13.7203 13.7017 15.0942 12.0328 15.1425C11.9965 15.1435 11.9601 15.1417 11.9241 15.1371C11.8864 15.1419 11.8484 15.1437 11.8104 15.1423C10.1508 15.0823 8.8273 13.7246 8.8273 12.0455Z" fill="#6B757E"/>
<path fill-rule="evenodd" clip-rule="evenodd" d="M15.1105 16.7948C14.2303 16.209 13.1045 15.9385 12.0161 15.9385C10.9276 15.9385 9.80036 16.2091 8.91647 16.7936L8.91479 16.7948C8.11258 17.3286 7.61838 18.1026 7.61838 18.966C7.61838 19.8293 8.1125 20.6032 8.91458 21.1371C9.79845 21.7269 10.9239 22.0005 12.0126 22.0005C13.1013 22.0005 14.2271 21.7266 15.1109 21.1369C15.9128 20.6031 16.4069 19.8292 16.4069 18.966C16.4069 18.1026 15.9127 17.3286 15.1105 16.7948ZM9.68691 17.9568C9.17603 18.2971 9.01354 18.6762 9.01354 18.966C9.01354 19.2559 9.17621 19.6353 9.68775 19.9757L9.68859 19.9763C10.2954 20.3814 11.1357 20.6053 12.0126 20.6053C12.8896 20.6053 13.7298 20.3814 14.3367 19.9763L14.3375 19.9757C14.3575 19.9624 14.3769 19.9491 14.3958 19.9357C14.8615 19.6058 15.0117 19.2446 15.0117 18.966C15.0117 18.676 14.8491 18.2967 14.3375 17.9562C13.9405 17.692 13.4394 17.5053 12.8915 17.4089C12.6095 17.3593 12.3151 17.3336 12.0161 17.3336C11.1368 17.3336 10.2937 17.5558 9.68691 17.9568Z" fill="#6B757E"/>
</svg>
