<svg width="24" height="24" viewBox="0 0 24 24" fill="none" xmlns="http://www.w3.org/2000/svg">
<path d="M20.3078 21H3.69231C3.31385 21 3 20.7153 3 20.3721C3 20.0288 3.31385 19.7441 3.69231 19.7441H20.3078C20.6863 19.7441 21.0001 20.0288 21.0001 20.3721C21.0001 20.7153 20.6863 21 20.3078 21Z" fill="#6B757E"/>
<path d="M6.09231 18.4879H4.6154C3.72924 18.4879 3 17.8265 3 17.0227V9.80595C3 9.00222 3.72924 8.34082 4.6154 8.34082H6.09231C6.97847 8.34082 7.70771 9.00222 7.70771 9.80595V17.0227C7.70771 17.8265 6.97847 18.4879 6.09231 18.4879ZM4.6154 9.58826C4.48617 9.58826 4.38463 9.68036 4.38463 9.79757V17.0227C4.38463 17.14 4.48617 17.232 4.6154 17.232H6.09231C6.22154 17.232 6.32308 17.14 6.32308 17.0227V9.80595C6.32308 9.68874 6.22154 9.59664 6.09231 9.59664H4.6154V9.58826Z" fill="#6B757E"/>
<path d="M12.7387 18.4887H11.2618C10.3756 18.4887 9.64638 17.8273 9.64638 17.0235V7.13603C9.64638 6.3323 10.3756 5.6709 11.2618 5.6709H12.7387C13.6248 5.6709 14.3541 6.3323 14.3541 7.13603V17.0235C14.3541 17.8273 13.6248 18.4887 12.7387 18.4887ZM11.2618 6.92672C11.1325 6.92672 11.031 7.01882 11.031 7.13603V17.0235C11.031 17.1408 11.1325 17.2328 11.2618 17.2328H12.7387C12.8679 17.2328 12.9695 17.1408 12.9695 17.0235V7.13603C12.9695 7.01882 12.8679 6.92672 12.7387 6.92672H11.2618Z" fill="#6B757E"/>
<path d="M19.3846 18.4885H17.9077C17.0216 18.4885 16.2923 17.8271 16.2923 17.0234V4.46513C16.2923 3.6614 17.0216 3 17.9077 3H19.3846C20.2708 3 21 3.6614 21 4.46513V17.0234C21 17.8271 20.2708 18.4885 19.3846 18.4885ZM17.9077 4.25582C17.7785 4.25582 17.677 4.34792 17.677 4.46513V17.0234C17.677 17.1406 17.7785 17.2327 17.9077 17.2327H19.3846C19.5139 17.2327 19.6154 17.1406 19.6154 17.0234V4.46513C19.6154 4.34792 19.5139 4.25582 19.3846 4.25582H17.9077Z" fill="#6B757E"/>
</svg>
