<svg width="24" height="24" viewBox="0 0 24 24" fill="none" xmlns="http://www.w3.org/2000/svg">
<path fill-rule="evenodd" clip-rule="evenodd" d="M5.86614 9.14165C5.86614 5.69651 8.62582 2.89746 12.0225 2.89746C15.4101 2.89746 18.1789 5.70576 18.1789 9.14165V11.8151C18.1789 12.0138 18.2232 12.3048 18.3073 12.6156C18.3903 12.9227 18.4976 13.1956 18.5952 13.3689L19.641 15.1306C20.4669 16.5268 19.8067 18.3455 18.2852 18.8564C14.2138 20.2358 9.821 20.2357 5.7497 18.8561L5.74717 18.8552C4.97884 18.5914 4.40265 18.0461 4.14502 17.3404C3.88709 16.6339 3.97484 15.8387 4.39533 15.1299L5.44276 13.3654C5.44299 13.3651 5.44322 13.3647 5.44345 13.3643C5.54332 13.1939 5.65273 12.922 5.73716 12.6135C5.82184 12.3041 5.86614 12.0136 5.86614 11.8151V9.14165ZM12.0225 4.28506C9.3814 4.28506 7.23422 6.46286 7.23422 9.14165V11.8151C7.23422 12.1808 7.15996 12.6026 7.05539 12.9847C6.95076 13.367 6.80054 13.7652 6.61787 14.076L6.61633 14.0786L5.56757 15.8453C5.56754 15.8453 5.5676 15.8452 5.56757 15.8453C5.3406 16.228 5.32793 16.5846 5.42797 16.8586C5.52823 17.1332 5.76795 17.3971 6.18455 17.5404C9.97445 18.8244 14.0628 18.8243 17.8527 17.54L17.8547 17.5393C18.5395 17.3097 18.8455 16.4836 18.4682 15.845C18.4681 15.8449 18.4683 15.8452 18.4682 15.845L17.413 14.0675C17.2378 13.7595 17.091 13.364 16.9879 12.9826C16.885 12.602 16.8108 12.1806 16.8108 11.8151V9.14165C16.8108 6.47211 14.6545 4.28506 12.0225 4.28506Z" fill="#6B757E"/>
<path fill-rule="evenodd" clip-rule="evenodd" d="M9.6983 3.60623C10.0626 2.66333 10.9671 2 12.0225 2C13.0779 2 13.9823 2.66333 14.3467 3.60623C14.4418 3.85237 14.3907 4.13193 14.215 4.32716C14.0392 4.5224 13.7694 4.59937 13.5191 4.52567C13.2661 4.45116 13.0107 4.39494 12.7519 4.36312L12.7494 4.36281C11.961 4.26285 11.216 4.32218 10.5261 4.5256C10.2758 4.59941 10.0059 4.52249 9.83008 4.32725C9.65429 4.13201 9.60318 3.85241 9.6983 3.60623Z" fill="#6B757E"/>
<path fill-rule="evenodd" clip-rule="evenodd" d="M9.97038 18.5312C9.97038 19.0979 10.2028 19.6267 10.5726 20.0018C10.9425 20.3769 11.4638 20.6126 12.0225 20.6126C13.1496 20.6126 14.0746 19.6744 14.0746 18.5312H15.4427C15.4427 20.4408 13.9052 22.0002 12.0225 22.0002C11.0854 22.0002 10.2204 21.6069 9.60525 20.983C8.9901 20.359 8.60229 19.4817 8.60229 18.5312H9.97038Z" fill="#6B757E"/>
</svg>
