<svg width="24" height="24" viewBox="0 0 24 24" fill="none" xmlns="http://www.w3.org/2000/svg">
<path d="M11.9757 13.7291C10.2527 13.7291 8.84607 12.3225 8.84607 10.5994C8.84607 8.87632 10.2527 7.46973 11.9757 7.46973C13.6988 7.46973 15.1054 8.87632 15.1054 10.5994C15.1054 12.3225 13.6988 13.7291 11.9757 13.7291ZM11.9757 8.79721C10.9823 8.79721 10.1648 9.606 10.1648 10.6082C10.1648 11.6104 10.9735 12.4192 11.9757 12.4192C12.9779 12.4192 13.7867 11.6104 13.7867 10.6082C13.7867 9.606 12.9779 8.79721 11.9757 8.79721Z" fill="#6B757E"/>
<path d="M16.5 20C16.1395 20 15.8791 20.4008 15.8791 18.7254C15.8791 17.0501 14.1297 15.6888 11.9758 15.6888C9.82198 15.6888 8.07253 17.0501 8.07253 18.7254C7.99999 20.5 7.36042 20 6.99998 20C6.63955 20 6.75385 19.0832 6.75385 18.7254C6.75385 16.3345 9.09231 14.3799 11.9758 14.3799C14.8593 14.3799 17.1978 16.3258 17.1978 18.7254C17.1978 19.0832 16.8604 20 16.5 20Z" fill="#6B757E"/>
<path d="M2 12C2 17.5122 6.4878 22 12 22C17.5122 22 22 17.5122 22 12.0098C22 10.8352 21.7995 9.68297 21.3986 8.58537L20.0878 9.24877C20.3805 10.1366 20.5366 11.0634 20.5366 12C20.5366 16.7122 16.7024 20.5366 12 20.5366C7.29756 20.5366 3.46341 16.7122 3.46341 12C3.46341 7.28781 7.29756 3.46341 12 3.46341C12.9463 3.46341 13.8732 3.60978 14.761 3.91222L15.3561 2.57263C14.2854 2.19291 13.1605 2 12 2C6.4878 2 2 6.4878 2 12Z" fill="#6B757E"/>
<circle cx="18.5" cy="5.5" r="4" stroke="#6B757E"/>
<path fill-rule="evenodd" clip-rule="evenodd" d="M17.8483 3.68549C17.8283 3.65023 17.7926 3.64752 17.773 3.65976L17.7705 3.66135L17.3898 3.89435C17.3423 3.92242 17.324 3.98999 17.3526 4.04152L17.3532 4.04258C17.4856 4.28331 17.5366 4.57743 17.397 4.83241C17.2572 5.08764 16.9894 5.18898 16.7243 5.18898C16.6681 5.18898 16.6209 5.23866 16.6209 5.29773V5.70227C16.6209 5.76903 16.67 5.812 16.7187 5.81107L16.7243 5.81096C16.9894 5.81096 17.2572 5.91236 17.397 6.16759C17.5366 6.42257 17.4856 6.71669 17.3532 6.95742L17.3526 6.95848C17.3257 7.00687 17.3389 7.07433 17.3939 7.10814C17.3939 7.10817 17.3938 7.10812 17.3939 7.10814L17.7689 7.33769C17.7958 7.35339 17.8317 7.34392 17.8483 7.31451L17.8489 7.31352L17.8725 7.27209C18.0049 7.0329 18.2211 6.84085 18.5 6.84085C18.779 6.84085 18.9951 7.0329 19.1275 7.2721L19.1517 7.31451C19.1717 7.34977 19.2074 7.35248 19.227 7.34024L19.2295 7.33865L19.6102 7.10565C19.6577 7.07758 19.676 7.01001 19.6474 6.95848L19.6468 6.95742C19.5144 6.71669 19.4634 6.42257 19.603 6.16759C19.7428 5.91236 20.0106 5.81102 20.2757 5.81102C20.3319 5.81102 20.3791 5.76134 20.3791 5.70227V5.29773C20.3791 5.23866 20.3319 5.18898 20.2757 5.18898C20.0106 5.18898 19.7428 5.08764 19.603 4.83241C19.4634 4.57743 19.5144 4.28331 19.6468 4.04258L19.6474 4.04152C19.6743 3.9931 19.6611 3.92562 19.6061 3.89181C19.606 3.8918 19.6061 3.89182 19.6061 3.89181L19.2311 3.66231C19.2042 3.64661 19.1683 3.65608 19.1517 3.68549L19.1511 3.68647L19.1275 3.72791C18.9951 3.9671 18.7789 4.15915 18.5 4.15915C18.2211 4.15915 18.0049 3.9671 17.8725 3.72791L17.8483 3.68549ZM18.3815 3.35121C18.1947 3.02198 17.7846 2.89433 17.4569 3.09818L17.0831 3.327C16.7352 3.5344 16.6137 4.00448 16.8159 4.36964C16.861 4.45167 16.8602 4.4936 16.8581 4.50655C16.8484 4.51496 16.8143 4.5365 16.7243 4.5365C16.3252 4.5365 16 4.87831 16 5.29773V5.70227C16 6.12149 16.3215 6.46922 16.7265 6.46351C16.8148 6.46384 16.8485 6.48511 16.8581 6.49345C16.8602 6.5064 16.861 6.54833 16.8159 6.63034C16.6115 6.99939 16.7391 7.46215 17.0812 7.67183L17.458 7.90249L17.4602 7.90383C17.7807 8.09629 18.1912 7.98412 18.3815 7.6488C18.3816 7.64862 18.3817 7.64843 18.3818 7.64824L18.4061 7.60573L18.4086 7.6012C18.4534 7.5198 18.4881 7.49913 18.5 7.49431C18.5119 7.49913 18.5466 7.5198 18.5914 7.6012L18.6182 7.64824C18.6183 7.64843 18.6184 7.64862 18.6185 7.6488C18.8053 7.97802 19.2154 8.10566 19.5431 7.90183L19.9169 7.673C20.2648 7.4656 20.3863 6.99554 20.1841 6.63038C20.139 6.54834 20.1398 6.5064 20.1419 6.49345C20.1516 6.48504 20.1857 6.4635 20.2757 6.4635C20.6748 6.4635 21 6.12169 21 5.70227V5.29773C21 4.87831 20.6748 4.5365 20.2757 4.5365C20.1857 4.5365 20.1516 4.51496 20.1419 4.50655C20.1398 4.4936 20.139 4.45166 20.1841 4.36961C20.3885 4.00057 20.2609 3.53784 19.9188 3.32817L19.542 3.09751L19.5398 3.09617C19.2193 2.9037 18.8088 3.01588 18.6185 3.35121C18.6184 3.35139 18.6183 3.35157 18.6182 3.35176L18.5939 3.39427L18.5914 3.3988C18.5466 3.4802 18.5119 3.50087 18.5 3.50569C18.4881 3.50087 18.4534 3.4802 18.4086 3.3988L18.3818 3.35176C18.3817 3.35157 18.3816 3.35139 18.3815 3.35121Z" fill="#6B757E"/>
</svg>
