<svg width="24" height="24" viewBox="0 0 24 24" fill="none" xmlns="http://www.w3.org/2000/svg">
<path fill-rule="evenodd" clip-rule="evenodd" d="M10 3.17073C6.2283 3.17073 3.17073 6.2283 3.17073 10C3.17073 13.7717 6.2283 16.8293 10 16.8293C13.7717 16.8293 16.8293 13.7717 16.8293 10C16.8293 6.2283 13.7717 3.17073 10 3.17073ZM2 10C2 5.58172 5.58172 2 10 2C14.4183 2 18 5.58172 18 10C18 14.4183 14.4183 18 10 18C5.58172 18 2 14.4183 2 10Z" fill="#6B757E"/>
<path fill-rule="evenodd" clip-rule="evenodd" d="M16 16.0002C16.2725 15.7278 16.7142 15.7278 16.9867 16.0002L21.7957 20.8091C22.0681 21.0816 22.0681 21.5233 21.7957 21.7958C21.5232 22.0683 21.0815 22.0683 20.809 21.7958L16 16.9869C15.7275 16.7144 15.7275 16.2727 16 16.0002Z" fill="#6B757E"/>
</svg>
