<svg width="24" height="24" viewBox="0 0 24 24" fill="none" xmlns="http://www.w3.org/2000/svg">
<path d="M11.4897 17.5C11.2552 17.5 11.0017 17.4202 10.771 17.2662L5.29906 13.6138L5.28503 13.6674C5.17324 14.0943 4.7945 14.3765 4.38181 14.3764C4.30194 14.3764 4.22079 14.3659 4.14005 14.3438L2.69301 13.947C2.1951 13.8105 1.89854 13.2851 2.03196 12.7756L3.48966 7.20947C3.62309 6.70005 4.13664 6.39663 4.63464 6.53324L6.08168 6.92984C6.32214 6.99578 6.52344 7.15429 6.64861 7.37605C6.77373 7.59776 6.80718 7.85539 6.74273 8.10137L6.66665 8.39185L9.26623 7.62712C9.96963 7.1692 10.8953 6.93805 11.6002 6.89562C11.6063 6.89514 11.6126 6.89524 11.6187 6.89552C12.4484 6.93531 13.4497 7.0367 14.5869 7.48561L17.3292 8.37953L17.2562 8.10085C17.1918 7.85487 17.2253 7.59738 17.3504 7.37558C17.4756 7.15377 17.6768 6.9954 17.9173 6.92951L19.3644 6.53277C19.6047 6.46682 19.8565 6.50114 20.0733 6.62915C20.29 6.75717 20.4449 6.96316 20.5093 7.20909L21.968 12.7786C22.0324 13.0245 21.9989 13.2822 21.8738 13.5039C21.7486 13.7256 21.5473 13.8841 21.3069 13.9501L19.8598 14.3467C19.7791 14.3688 19.6979 14.3795 19.6181 14.3794C19.2577 14.3795 18.9233 14.1643 18.7699 13.8256C18.4212 14.1258 17.6779 14.6421 16.6899 14.642C16.6586 14.642 16.6271 14.6416 16.5954 14.6405C16.4277 14.7677 16.2102 14.8318 15.9551 14.8318C15.8135 14.8318 15.6602 14.8121 15.4975 14.7724C15.5224 15.2682 15.4016 15.6301 15.1369 15.8501C14.9288 16.023 14.6676 16.0748 14.4296 16.0747C14.2559 16.0747 14.0946 16.0472 13.9751 16.0191C13.8966 16.414 13.7198 16.6923 13.4478 16.8476C13.2739 16.947 13.0825 16.9818 12.9002 16.9817C12.6726 16.9817 12.459 16.9275 12.3109 16.8778C12.2338 17.1297 12.0815 17.3182 11.8693 17.4189C11.7545 17.4734 11.6253 17.5001 11.4897 17.5ZM18.6566 13.4477L17.4371 8.79143L14.4754 7.82594C14.472 7.82481 14.4686 7.82367 14.4654 7.82235C13.3773 7.39195 12.4125 7.29344 11.6116 7.25455C10.6103 7.31756 8.56592 7.90566 8.57708 9.33337C8.5792 9.60492 8.50363 10.1081 8.32896 10.3761C8.18939 10.5983 8.14123 10.7929 8.20171 10.8942C8.24508 10.9667 8.35729 11.0014 8.50206 10.9868C8.91896 10.9449 9.50503 10.5184 9.80663 9.68087C9.80742 9.67875 9.8082 9.67667 9.80898 9.67455C9.98315 9.24198 10.4294 8.7362 10.9454 8.60653C11.2513 8.52983 11.537 8.59577 11.7718 8.79747L16.1644 12.5719C16.6403 12.99 16.9152 13.4868 16.9198 13.9358C16.9211 14.0573 16.9017 14.1722 16.8633 14.2765C17.7758 14.2103 18.4427 13.6508 18.6566 13.4477ZM19.0075 13.4009C19.0264 13.4317 19.0353 13.4672 19.0341 13.5025L19.0538 13.5775C19.1371 13.8957 19.4579 14.0853 19.769 14L21.2161 13.6033C21.366 13.5621 21.4916 13.4632 21.5699 13.3245C21.6482 13.1856 21.6693 13.0249 21.6291 12.8715L20.1705 7.30194C20.1303 7.14858 20.0334 7.02014 19.8978 6.94003C19.7622 6.85984 19.605 6.83845 19.4551 6.87947L18.0081 7.27617C17.8582 7.31728 17.7325 7.41636 17.6542 7.55504C17.5759 7.69377 17.555 7.85464 17.5951 8.00795L17.7391 8.55773C17.7575 8.58784 17.7672 8.62334 17.7658 8.65983L19.0075 13.4009ZM5.01467 13.3129C5.01628 13.2911 5.02177 13.2694 5.03142 13.2489L6.23863 8.63934C6.24029 8.61701 6.24606 8.59549 6.25529 8.57571L6.40385 8.00843C6.44404 7.85506 6.42304 7.69429 6.34475 7.55551C6.26645 7.41678 6.14082 7.31775 5.99092 7.27664L4.54384 6.8799C4.49341 6.86611 4.44271 6.85955 4.39283 6.8595C4.13498 6.8595 3.89839 7.03576 3.82853 7.30246L2.37084 12.8685C2.28747 13.1867 2.47276 13.5151 2.78376 13.6003L4.23085 13.997C4.54195 14.0823 4.86279 13.8928 4.94615 13.5745L5.01467 13.3129ZM5.39461 13.249L10.9627 16.9656C11.2263 17.1414 11.5171 17.1904 11.7216 17.0933C11.8613 17.0269 11.9524 16.8966 11.9934 16.705L10.4193 15.3182C10.3459 15.2535 10.3377 15.1402 10.4009 15.0651C10.4641 14.9899 10.5749 14.9815 10.6483 15.0462L12.2778 16.4818C12.3852 16.529 12.914 16.7423 13.2777 16.5337C13.4727 16.4217 13.5965 16.1958 13.6462 15.8613L11.6984 14.0497C11.6267 13.983 11.6214 13.8695 11.6866 13.7962C11.7518 13.7228 11.8627 13.7174 11.9344 13.7841L13.9222 15.6329C14.0573 15.6759 14.6073 15.8287 14.9163 15.571C15.1153 15.4049 15.1879 15.0837 15.1322 14.6155L12.9819 12.6447C12.9097 12.5785 12.9036 12.4651 12.9683 12.3913C13.0329 12.3174 13.1438 12.3112 13.216 12.3773L15.3876 14.3677C15.8467 14.5212 16.2216 14.5059 16.4198 14.3243C16.5452 14.2092 16.5701 14.0517 16.569 13.9397C16.5655 13.599 16.3293 13.19 15.9373 12.8456L11.5461 9.07238C11.3985 8.94555 11.2245 8.90608 11.0291 8.95518C10.6805 9.04269 10.2965 9.40922 10.1347 9.80827C9.77853 10.794 9.07555 11.2899 8.5363 11.3441C8.2502 11.3728 8.01924 11.2771 7.90238 11.0814C7.82344 10.9492 7.73578 10.6564 8.03548 10.1795C8.15105 10.002 8.22824 9.59355 8.22626 9.33629C8.2227 8.88654 8.37832 8.5051 8.633 8.18695L6.56067 8.79653L5.39461 13.249Z" fill="#6B757E" stroke="#6B757E" stroke-width="0.5"/>
</svg>
