<svg width="24" height="24" viewBox="0 0 24 24" fill="none" xmlns="http://www.w3.org/2000/svg">
<path fill-rule="evenodd" clip-rule="evenodd" d="M2 6.78261C2 6.35039 2.3444 6 2.76923 6H21.2308C21.6556 6 22 6.35039 22 6.78261C22 7.21483 21.6556 7.56522 21.2308 7.56522H2.76923C2.3444 7.56522 2 7.21483 2 6.78261Z" fill="#6B757E"/>
<path fill-rule="evenodd" clip-rule="evenodd" d="M5.0769 12.0004C5.0769 11.5682 5.4213 11.2178 5.84614 11.2178H18.1538C18.5787 11.2178 18.9231 11.5682 18.9231 12.0004C18.9231 12.4326 18.5787 12.783 18.1538 12.783H5.84614C5.4213 12.783 5.0769 12.4326 5.0769 12.0004Z" fill="#6B757E"/>
<path fill-rule="evenodd" clip-rule="evenodd" d="M9.17944 17.2172C9.17944 16.785 9.52384 16.4346 9.94867 16.4346H14.0512C14.4761 16.4346 14.8205 16.785 14.8205 17.2172C14.8205 17.6494 14.4761 17.9998 14.0512 17.9998H9.94867C9.52384 17.9998 9.17944 17.6494 9.17944 17.2172Z" fill="#6B757E"/>
</svg>
