<svg width="24" height="24" viewBox="0 0 24 24" fill="none" xmlns="http://www.w3.org/2000/svg">
<path fill-rule="evenodd" clip-rule="evenodd" d="M11.6151 9.40813C11.6151 9.02578 11.925 8.71582 12.3074 8.71582H16.6689C17.0512 8.71582 17.3612 9.02578 17.3612 9.40813C17.3612 9.79048 17.0512 10.1004 16.6689 10.1004H12.3074C11.925 10.1004 11.6151 9.79048 11.6151 9.40813Z" fill="#6B757E"/>
<path fill-rule="evenodd" clip-rule="evenodd" d="M10.3129 7.67152C10.5833 7.94189 10.5833 8.38023 10.3129 8.65059L8.44368 10.5198C8.17332 10.7902 7.73498 10.7902 7.46461 10.5198L6.84154 9.89675C6.57117 9.62638 6.57117 9.18804 6.84154 8.91768C7.1119 8.64731 7.55024 8.64731 7.82061 8.91768L7.95415 9.05122L9.33384 7.67152C9.60421 7.40116 10.0426 7.40116 10.3129 7.67152Z" fill="#6B757E"/>
<path fill-rule="evenodd" clip-rule="evenodd" d="M11.6151 15.2236C11.6151 14.8412 11.925 14.5312 12.3074 14.5312H16.6689C17.0513 14.5312 17.3612 14.8412 17.3612 15.2236C17.3612 15.6059 17.0513 15.9159 16.6689 15.9159H12.3074C11.925 15.9159 11.6151 15.6059 11.6151 15.2236Z" fill="#6B757E"/>
<path fill-rule="evenodd" clip-rule="evenodd" d="M10.3129 13.4879C10.5833 13.7583 10.5833 14.1966 10.3129 14.467L8.44368 16.3362C8.17332 16.6066 7.73498 16.6066 7.46461 16.3362L6.84154 15.7132C6.57117 15.4428 6.57117 15.0044 6.84154 14.7341C7.1119 14.4637 7.55024 14.4637 7.82061 14.7341L7.95415 14.8676L9.33384 13.4879C9.60421 13.2176 10.0426 13.2176 10.3129 13.4879Z" fill="#6B757E"/>
<path fill-rule="evenodd" clip-rule="evenodd" d="M4.55277 4.55277C5.68074 3.4248 7.36249 3 9.50769 3H14.4923C16.6375 3 18.3193 3.4248 19.4472 4.55277C20.5752 5.68074 21 7.36249 21 9.50769V14.4923C21 16.6375 20.5752 18.3193 19.4472 19.4472C18.3193 20.5752 16.6375 21 14.4923 21H9.50769C7.36249 21 5.68074 20.5752 4.55277 19.4472C3.4248 18.3193 3 16.6375 3 14.4923V9.50769C3 7.36249 3.4248 5.68074 4.55277 4.55277ZM5.53184 5.53184C4.79058 6.2731 4.38462 7.49905 4.38462 9.50769V14.4923C4.38462 16.5009 4.79058 17.7269 5.53184 18.4682C6.2731 19.2094 7.49905 19.6154 9.50769 19.6154H14.4923C16.5009 19.6154 17.7269 19.2094 18.4682 18.4682C19.2094 17.7269 19.6154 16.5009 19.6154 14.4923V9.50769C19.6154 7.49905 19.2094 6.2731 18.4682 5.53184C17.7269 4.79058 16.5009 4.38462 14.4923 4.38462H9.50769C7.49905 4.38462 6.2731 4.79058 5.53184 5.53184Z" fill="#6B757E"/>
</svg>
