<svg width="24" height="24" viewBox="0 0 24 24" fill="none" xmlns="http://www.w3.org/2000/svg">
<path d="M20.3135 7.09765C20.2951 7.09765 20.2674 7.09765 20.2397 7.09765C15.3559 6.60462 10.4813 6.41858 5.65292 6.9116L3.76957 7.09765C3.38182 7.13485 3.04023 6.85579 3.0033 6.46509C2.96637 6.07439 3.24334 5.73951 3.62185 5.7023L5.50521 5.51626C10.4167 5.01393 15.3928 5.20928 20.3781 5.7023C20.7567 5.73951 21.0336 6.0837 20.9967 6.46509C20.969 6.82788 20.6643 7.09765 20.3135 7.09765Z" fill="#6B757E"/>
<path d="M8.77342 6.15812C8.73649 6.15812 8.69956 6.15812 8.6534 6.14882C8.28411 6.08371 8.02561 5.72092 8.09024 5.34883L8.29335 4.13023C8.44106 3.2372 8.64417 2 10.7952 2H13.2141C15.3744 2 15.5775 3.28372 15.716 4.13953L15.9191 5.34883C15.9837 5.73022 15.7252 6.09301 15.3559 6.14882C14.9774 6.21394 14.6173 5.95347 14.562 5.58138L14.3588 4.37208C14.2296 3.56279 14.2019 3.40465 13.2233 3.40465H10.8045C9.82588 3.40465 9.80741 3.53488 9.66893 4.36278L9.45659 5.57208C9.4012 5.91627 9.10577 6.15812 8.77342 6.15812Z" fill="#6B757E"/>
<path d="M14.9682 21.9996H9.04115C5.81914 21.9996 5.68989 20.2042 5.58834 18.7531L4.98825 9.38566C4.96055 9.00427 5.25598 8.66938 5.6345 8.64148C6.02225 8.62287 6.34537 8.91124 6.37307 9.29264L6.97316 18.66C7.07471 20.074 7.11164 20.6042 9.04115 20.6042H14.9682C16.9069 20.6042 16.9438 20.074 17.0362 18.66L17.6362 9.29264C17.6639 8.91124 17.9963 8.62287 18.3748 8.64148C18.7533 8.66938 19.0488 8.99496 19.0211 9.38566L18.421 18.7531C18.3194 20.2042 18.1902 21.9996 14.9682 21.9996Z" fill="#6B757E"/>
<path d="M13.5372 16.8836H10.4629C10.0844 16.8836 9.77051 16.5673 9.77051 16.186C9.77051 15.8046 10.0844 15.4883 10.4629 15.4883H13.5372C13.9157 15.4883 14.2296 15.8046 14.2296 16.186C14.2296 16.5673 13.9157 16.8836 13.5372 16.8836Z" fill="#6B757E"/>
<path d="M14.3127 13.1629H9.69662C9.3181 13.1629 9.00421 12.8466 9.00421 12.4653C9.00421 12.0839 9.3181 11.7676 9.69662 11.7676H14.3127C14.6912 11.7676 15.0051 12.0839 15.0051 12.4653C15.0051 12.8466 14.6912 13.1629 14.3127 13.1629Z" fill="#6B757E"/>
</svg>
