<svg width="24" height="24" viewBox="0 0 24 24" fill="none" xmlns="http://www.w3.org/2000/svg">
<path d="M11.9757 13.73C10.2527 13.73 8.84607 12.3234 8.84607 10.6004C8.84607 8.87729 10.2527 7.4707 11.9757 7.4707C13.6988 7.4707 15.1054 8.87729 15.1054 10.6004C15.1054 12.3234 13.6988 13.73 11.9757 13.73ZM11.9757 8.79818C10.9823 8.79818 10.1648 9.60697 10.1648 10.6092C10.1648 11.6114 10.9735 12.4202 11.9757 12.4202C12.9779 12.4202 13.7867 11.6114 13.7867 10.6092C13.7867 9.60697 12.9779 8.79818 11.9757 8.79818Z" fill="#6B757E"/>
<path d="M16.5 20C16.1396 20 15.8792 20.4008 15.8792 18.7254C15.8792 17.0501 14.1297 15.6888 11.9759 15.6888C9.82204 15.6888 8.07259 17.0501 8.07259 18.7254C8.00005 20.5 7.36049 20 7.00005 20C6.63961 20 6.75391 19.0832 6.75391 18.7254C6.75391 16.3345 9.09237 14.3799 11.9759 14.3799C14.8594 14.3799 17.1979 16.3258 17.1979 18.7254C17.1979 19.0832 16.8605 20 16.5 20Z" fill="#6B757E"/>
<circle cx="12" cy="12" r="9.25" stroke="#6B757E" stroke-width="1.5"/>
</svg>
