<svg width="24" height="24" viewBox="0 0 24 24" fill="none" xmlns="http://www.w3.org/2000/svg">
<path d="M20.1019 16.0018C19.6044 15.437 18.9416 15.0351 18.2097 14.8482V3.96365C18.2097 2.88089 17.3024 2 16.1871 2H8.56555C8.27656 2 7.99495 2.06638 7.74163 2.18936C7.74038 2.18997 7.73912 2.19028 7.73786 2.19089C7.73661 2.1915 7.73519 2.19241 7.73378 2.19302C7.71822 2.20065 7.70282 2.20889 7.68742 2.21698C7.67563 2.22324 7.66369 2.22934 7.65206 2.23575C7.63839 2.24338 7.62472 2.25131 7.6112 2.2594C7.59785 2.26718 7.58465 2.27496 7.5716 2.28305C7.55966 2.29053 7.54787 2.29816 7.53609 2.30594C7.52163 2.31525 7.50733 2.32486 7.49334 2.33463C7.48266 2.34195 7.47229 2.34943 7.46176 2.3569C7.44699 2.36774 7.43221 2.37872 7.41776 2.39001C7.40817 2.39749 7.39859 2.40482 7.38916 2.41245C7.37439 2.42435 7.35977 2.43671 7.34531 2.44907C7.33651 2.4567 7.32756 2.46417 7.31876 2.47195C7.30414 2.48492 7.29 2.4985 7.27585 2.51193C7.26768 2.51971 7.2592 2.52734 7.25118 2.53528C7.23421 2.55206 7.21771 2.56931 7.20137 2.58685C7.19697 2.59158 7.19241 2.59601 7.18801 2.60074L6.09915 3.79001L4.46562 5.57437C4.44739 5.59421 4.42979 5.6145 4.41251 5.63525C4.40811 5.64059 4.40386 5.64609 4.39946 5.65143C4.38752 5.66623 4.37558 5.68088 4.36411 5.69583C4.35593 5.70651 4.34808 5.7175 4.34022 5.72833C4.33299 5.7381 4.32576 5.74771 4.31885 5.75763C4.30895 5.77182 4.29936 5.78616 4.28993 5.80066C4.28569 5.80722 4.28129 5.81363 4.2772 5.82004C4.26605 5.83728 4.25552 5.85483 4.24515 5.87253C4.24295 5.87604 4.2409 5.87955 4.23886 5.88306C4.22692 5.90335 4.2156 5.9238 4.2046 5.94455C4.20429 5.94516 4.20397 5.94577 4.20366 5.94638C4.07103 6.19708 4 6.47647 4 6.76318V18.9046C4 19.9877 4.90736 20.8687 6.02278 20.8687H14.5419C15.2472 21.5898 16.2258 22 17.2555 22C19.3203 22 21 20.369 21 18.3641C21 17.4979 20.6812 16.659 20.1019 16.0018ZM7.51629 3.418V5.60611C7.51629 5.7355 7.40801 5.84079 7.27476 5.84079H5.29834L6.62182 4.39502L7.51629 3.418ZM6.02278 20.0875C5.35098 20.0875 4.80458 19.5569 4.80458 18.9048V6.76334C4.80458 6.71573 4.80914 6.66858 4.8159 6.62204H7.27476C7.85164 6.62204 8.32087 6.16626 8.32087 5.60611V2.81009C8.40039 2.79132 8.48242 2.78125 8.56555 2.78125H16.1871C16.8587 2.78125 17.4051 3.31165 17.4051 3.96365V14.731C17.3553 14.7292 17.3054 14.7281 17.2555 14.7281C15.1908 14.7281 13.5109 16.3593 13.5109 18.3641C13.5109 18.4125 13.5123 18.4607 13.5144 18.5089C13.5148 18.5221 13.5155 18.535 13.5163 18.548C13.5183 18.5889 13.5211 18.6296 13.5246 18.6702C13.5254 18.6783 13.5258 18.6862 13.5266 18.6943C13.531 18.7418 13.5365 18.7889 13.543 18.8359C13.5445 18.848 13.5464 18.86 13.5482 18.8721C13.5537 18.9099 13.5598 18.9479 13.5665 18.9856C13.5686 18.9969 13.5705 19.0084 13.5725 19.0197C13.5813 19.066 13.5909 19.1121 13.6016 19.1581C13.6038 19.168 13.6063 19.1776 13.6087 19.1875C13.6176 19.2252 13.6274 19.2626 13.6376 19.3C13.641 19.3128 13.6445 19.3254 13.6481 19.3383C13.6611 19.3834 13.6748 19.4286 13.6896 19.4733C13.6912 19.4783 13.693 19.4831 13.6946 19.4881C13.7081 19.5285 13.7226 19.5687 13.7375 19.6086C13.7424 19.6216 13.7474 19.6346 13.7524 19.6474C13.7672 19.6855 13.7826 19.7234 13.7986 19.7609C13.8016 19.7676 13.8043 19.7744 13.8071 19.7811C13.8258 19.8241 13.8456 19.8665 13.8661 19.9088C13.8719 19.9208 13.8779 19.9329 13.884 19.9449C13.9008 19.9788 13.9181 20.0122 13.936 20.0457C13.9413 20.0557 13.9465 20.0658 13.9522 20.0759C13.9542 20.0797 13.9563 20.0836 13.9585 20.0876H6.02278V20.0875ZM17.2555 21.2188C16.3974 21.2188 15.5846 20.856 15.0252 20.2234C14.5676 19.7069 14.3157 19.0467 14.3157 18.3641C14.3157 16.79 15.6344 15.5094 17.2555 15.5094C17.4185 15.5094 17.5818 15.5225 17.7416 15.5486C19.1634 15.7778 20.1954 16.9619 20.1954 18.3641C20.1954 19.9381 18.8766 21.2188 17.2555 21.2188Z" fill="#6B757E"/>
<path d="M8.05659 8.76562H14.4345C14.6567 8.76562 14.8368 8.59076 14.8368 8.375C14.8368 8.15924 14.6567 7.98438 14.4345 7.98438H8.05659C7.83439 7.98438 7.6543 8.15924 7.6543 8.375C7.6543 8.59076 7.83439 8.76562 8.05659 8.76562Z" fill="#6B757E"/>
<path d="M8.05659 11.6387H14.4345C14.6567 11.6387 14.8368 11.4638 14.8368 11.248C14.8368 11.0323 14.6567 10.8574 14.4345 10.8574H8.05659C7.83439 10.8574 7.6543 11.0323 7.6543 11.248C7.6543 11.4638 7.83439 11.6387 8.05659 11.6387Z" fill="#6B757E"/>
<path d="M14.4346 13.7305H9.66694C9.44474 13.7305 9.26465 13.9053 9.26465 14.1211C9.26465 14.3367 9.44474 14.5117 9.66694 14.5117H14.4346C14.6568 14.5117 14.8369 14.3367 14.8369 14.1211C14.8369 13.9053 14.6568 13.7305 14.4346 13.7305Z" fill="#6B757E"/>
<path d="M8.05709 13.7305C7.83489 13.7305 7.65527 13.9053 7.65527 14.1211C7.65527 14.3367 7.83599 14.5117 8.05819 14.5117C8.2804 14.5117 8.46049 14.3367 8.46049 14.1211C8.46049 13.9053 8.2804 13.7305 8.05819 13.7305H8.05709Z" fill="#6B757E"/>
<path d="M12.6561 16.6035H8.05659C7.83439 16.6035 7.6543 16.7784 7.6543 16.9941C7.6543 17.2099 7.83439 17.3848 8.05659 17.3848H12.6561C12.8781 17.3848 13.0584 17.2099 13.0584 16.9941C13.0584 16.7784 12.8781 16.6035 12.6561 16.6035Z" fill="#6B757E"/>
<path d="M18.6488 17.0099C18.4916 16.8574 18.2371 16.8574 18.0799 17.0099L17.2549 17.8109L16.4299 17.0099C16.2729 16.8574 16.0182 16.8574 15.861 17.0099C15.7039 17.1624 15.7039 17.4097 15.861 17.5623L16.6859 18.3634L15.861 19.1643C15.7039 19.3169 15.7039 19.5643 15.861 19.7169C15.9396 19.7932 16.0425 19.8313 16.1455 19.8313C16.2484 19.8313 16.3513 19.7932 16.4299 19.7169L17.2549 18.9158L18.0798 19.7169C18.1583 19.7932 18.2613 19.8313 18.3642 19.8313C18.4673 19.8313 18.5702 19.7932 18.6488 19.7169C18.8058 19.5643 18.8058 19.3169 18.6488 19.1643L17.8239 18.3634L18.6488 17.5623C18.8059 17.4097 18.8059 17.1624 18.6488 17.0099Z" fill="#6B757E"/>
</svg>
